<svg xmlns="http://www.w3.org/2000/svg" xmlns:xlink="http://www.w3.org/1999/xlink" width="1920" zoomAndPan="magnify" viewBox="0 0 1440 809.999993" height="1080" preserveAspectRatio="xMidYMid meet" version="1.0"><defs><clipPath id="7ba1b195ab"><path d="M 0 506 L 511 506 L 511 810 L 0 810 Z M 0 506 " clip-rule="nonzero"/></clipPath><clipPath id="9fb4314c9f"><path d="M 646.882812 749.164062 L 302.414062 1564.375 L -469.960938 1238.003906 L -125.492188 422.796875 Z M 646.882812 749.164062 " clip-rule="nonzero"/></clipPath><clipPath id="00d03d7bd7"><path d="M 646.882812 749.164062 L 302.414062 1564.375 L -469.960938 1238.003906 L -125.492188 422.796875 Z M 646.882812 749.164062 " clip-rule="nonzero"/></clipPath><clipPath id="48d449051f"><path d="M 1211 0 L 1440 0 L 1440 645 L 1211 645 Z M 1211 0 " clip-rule="nonzero"/></clipPath><clipPath id="4c48cb1587"><path d="M 1067.332031 383.476562 L 1434.492188 -421.769531 L 2197.429688 -73.898438 L 1830.265625 731.347656 Z M 1067.332031 383.476562 " clip-rule="nonzero"/></clipPath><clipPath id="a26968bf69"><path d="M 1067.332031 383.476562 L 1434.492188 -421.769531 L 2197.429688 -73.898438 L 1830.265625 731.347656 Z M 1067.332031 383.476562 " clip-rule="nonzero"/></clipPath><clipPath id="15f506d005"><path d="M 59 2 L 65 2 L 65 8 L 59 8 Z M 59 2 " clip-rule="nonzero"/></clipPath><clipPath id="a8d579baf6"><path d="M 43.003906 -78.667969 L 88.363281 100.167969 L 3.308594 121.742188 L -42.050781 -57.09375 Z M 43.003906 -78.667969 " clip-rule="nonzero"/></clipPath><clipPath id="4001642851"><path d="M 43.003906 -78.667969 L 88.363281 100.167969 L 3.308594 121.742188 L -42.050781 -57.09375 Z M 43.003906 -78.667969 " clip-rule="nonzero"/></clipPath><clipPath id="57d8fa206e"><path d="M 45 5 L 51 5 L 51 11 L 45 11 Z M 45 5 " clip-rule="nonzero"/></clipPath><clipPath id="c48acea9ad"><path d="M 43.003906 -78.667969 L 88.363281 100.167969 L 3.308594 121.742188 L -42.050781 -57.09375 Z M 43.003906 -78.667969 " clip-rule="nonzero"/></clipPath><clipPath id="4592d64186"><path d="M 43.003906 -78.667969 L 88.363281 100.167969 L 3.308594 121.742188 L -42.050781 -57.09375 Z M 43.003906 -78.667969 " clip-rule="nonzero"/></clipPath><clipPath id="a91eb5d0bd"><path d="M 29 0 L 34 0 L 34 1 L 29 1 Z M 29 0 " clip-rule="nonzero"/></clipPath><clipPath id="8f4f7f6824"><path d="M 43.003906 -78.667969 L 88.363281 100.167969 L 3.308594 121.742188 L -42.050781 -57.09375 Z M 43.003906 -78.667969 " clip-rule="nonzero"/></clipPath><clipPath id="489ae7f02e"><path d="M 43.003906 -78.667969 L 88.363281 100.167969 L 3.308594 121.742188 L -42.050781 -57.09375 Z M 43.003906 -78.667969 " clip-rule="nonzero"/></clipPath><clipPath id="08d1e20819"><path d="M 32 9 L 38 9 L 38 15 L 32 15 Z M 32 9 " clip-rule="nonzero"/></clipPath><clipPath id="35daf29ecd"><path d="M 43.003906 -78.667969 L 88.363281 100.167969 L 3.308594 121.742188 L -42.050781 -57.09375 Z M 43.003906 -78.667969 " clip-rule="nonzero"/></clipPath><clipPath id="873326a5f9"><path d="M 43.003906 -78.667969 L 88.363281 100.167969 L 3.308594 121.742188 L -42.050781 -57.09375 Z M 43.003906 -78.667969 " clip-rule="nonzero"/></clipPath><clipPath id="20e1103941"><path d="M 15 0 L 21 0 L 21 5 L 15 5 Z M 15 0 " clip-rule="nonzero"/></clipPath><clipPath id="5c6704dbd5"><path d="M 43.003906 -78.667969 L 88.363281 100.167969 L 3.308594 121.742188 L -42.050781 -57.09375 Z M 43.003906 -78.667969 " clip-rule="nonzero"/></clipPath><clipPath id="0f9fdf64ed"><path d="M 43.003906 -78.667969 L 88.363281 100.167969 L 3.308594 121.742188 L -42.050781 -57.09375 Z M 43.003906 -78.667969 " clip-rule="nonzero"/></clipPath><clipPath id="f550ff248a"><path d="M 19 12 L 24 12 L 24 18 L 19 18 Z M 19 12 " clip-rule="nonzero"/></clipPath><clipPath id="60b74cf2cf"><path d="M 43.003906 -78.667969 L 88.363281 100.167969 L 3.308594 121.742188 L -42.050781 -57.09375 Z M 43.003906 -78.667969 " clip-rule="nonzero"/></clipPath><clipPath id="c6186b8b2f"><path d="M 43.003906 -78.667969 L 88.363281 100.167969 L 3.308594 121.742188 L -42.050781 -57.09375 Z M 43.003906 -78.667969 " clip-rule="nonzero"/></clipPath><clipPath id="138a889e2c"><path d="M 2 2 L 8 2 L 8 8 L 2 8 Z M 2 2 " clip-rule="nonzero"/></clipPath><clipPath id="6d50a71e01"><path d="M 43.003906 -78.667969 L 88.363281 100.167969 L 3.308594 121.742188 L -42.050781 -57.09375 Z M 43.003906 -78.667969 " clip-rule="nonzero"/></clipPath><clipPath id="ddb9a766cd"><path d="M 43.003906 -78.667969 L 88.363281 100.167969 L 3.308594 121.742188 L -42.050781 -57.09375 Z M 43.003906 -78.667969 " clip-rule="nonzero"/></clipPath><clipPath id="2cd8d37047"><path d="M 5 15 L 11 15 L 11 21 L 5 21 Z M 5 15 " clip-rule="nonzero"/></clipPath><clipPath id="d0cb71978a"><path d="M 43.003906 -78.667969 L 88.363281 100.167969 L 3.308594 121.742188 L -42.050781 -57.09375 Z M 43.003906 -78.667969 " clip-rule="nonzero"/></clipPath><clipPath id="7750b51c14"><path d="M 43.003906 -78.667969 L 88.363281 100.167969 L 3.308594 121.742188 L -42.050781 -57.09375 Z M 43.003906 -78.667969 " clip-rule="nonzero"/></clipPath><clipPath id="30f3c5c076"><path d="M 62 15 L 68 15 L 68 21 L 62 21 Z M 62 15 " clip-rule="nonzero"/></clipPath><clipPath id="a93a853848"><path d="M 43.003906 -78.667969 L 88.363281 100.167969 L 3.308594 121.742188 L -42.050781 -57.09375 Z M 43.003906 -78.667969 " clip-rule="nonzero"/></clipPath><clipPath id="07d71220bf"><path d="M 43.003906 -78.667969 L 88.363281 100.167969 L 3.308594 121.742188 L -42.050781 -57.09375 Z M 43.003906 -78.667969 " clip-rule="nonzero"/></clipPath><clipPath id="7e73361631"><path d="M 66 29 L 71 29 L 71 35 L 66 35 Z M 66 29 " clip-rule="nonzero"/></clipPath><clipPath id="1b4a73fd73"><path d="M 43.003906 -78.667969 L 88.363281 100.167969 L 3.308594 121.742188 L -42.050781 -57.09375 Z M 43.003906 -78.667969 " clip-rule="nonzero"/></clipPath><clipPath id="25c400daff"><path d="M 43.003906 -78.667969 L 88.363281 100.167969 L 3.308594 121.742188 L -42.050781 -57.09375 Z M 43.003906 -78.667969 " clip-rule="nonzero"/></clipPath><clipPath id="a1bb6f6a80"><path d="M 69 42 L 75 42 L 75 48 L 69 48 Z M 69 42 " clip-rule="nonzero"/></clipPath><clipPath id="8b725c7361"><path d="M 43.003906 -78.667969 L 88.363281 100.167969 L 3.308594 121.742188 L -42.050781 -57.09375 Z M 43.003906 -78.667969 " clip-rule="nonzero"/></clipPath><clipPath id="4390f2fc66"><path d="M 43.003906 -78.667969 L 88.363281 100.167969 L 3.308594 121.742188 L -42.050781 -57.09375 Z M 43.003906 -78.667969 " clip-rule="nonzero"/></clipPath><clipPath id="312c6c33a0"><path d="M 72 56 L 78 56 L 78 61 L 72 61 Z M 72 56 " clip-rule="nonzero"/></clipPath><clipPath id="98fbedc3de"><path d="M 43.003906 -78.667969 L 88.363281 100.167969 L 3.308594 121.742188 L -42.050781 -57.09375 Z M 43.003906 -78.667969 " clip-rule="nonzero"/></clipPath><clipPath id="777f92851e"><path d="M 43.003906 -78.667969 L 88.363281 100.167969 L 3.308594 121.742188 L -42.050781 -57.09375 Z M 43.003906 -78.667969 " clip-rule="nonzero"/></clipPath><clipPath id="5a8fa26db7"><path d="M 76 69 L 82 69 L 82 75 L 76 75 Z M 76 69 " clip-rule="nonzero"/></clipPath><clipPath id="4e45699b99"><path d="M 43.003906 -78.667969 L 88.363281 100.167969 L 3.308594 121.742188 L -42.050781 -57.09375 Z M 43.003906 -78.667969 " clip-rule="nonzero"/></clipPath><clipPath id="3bfa5fee1b"><path d="M 43.003906 -78.667969 L 88.363281 100.167969 L 3.308594 121.742188 L -42.050781 -57.09375 Z M 43.003906 -78.667969 " clip-rule="nonzero"/></clipPath><clipPath id="579a636abf"><path d="M 79 82 L 85 82 L 85 88 L 79 88 Z M 79 82 " clip-rule="nonzero"/></clipPath><clipPath id="218e327675"><path d="M 43.003906 -78.667969 L 88.363281 100.167969 L 3.308594 121.742188 L -42.050781 -57.09375 Z M 43.003906 -78.667969 " clip-rule="nonzero"/></clipPath><clipPath id="dcfa1bd890"><path d="M 43.003906 -78.667969 L 88.363281 100.167969 L 3.308594 121.742188 L -42.050781 -57.09375 Z M 43.003906 -78.667969 " clip-rule="nonzero"/></clipPath><clipPath id="28a517006a"><path d="M 83 96 L 88 96 L 88 102 L 83 102 Z M 83 96 " clip-rule="nonzero"/></clipPath><clipPath id="376a0c897f"><path d="M 43.003906 -78.667969 L 88.363281 100.167969 L 3.308594 121.742188 L -42.050781 -57.09375 Z M 43.003906 -78.667969 " clip-rule="nonzero"/></clipPath><clipPath id="a3233c70a7"><path d="M 43.003906 -78.667969 L 88.363281 100.167969 L 3.308594 121.742188 L -42.050781 -57.09375 Z M 43.003906 -78.667969 " clip-rule="nonzero"/></clipPath><clipPath id="702bbd514c"><path d="M 49 19 L 55 19 L 55 25 L 49 25 Z M 49 19 " clip-rule="nonzero"/></clipPath><clipPath id="86ebccb2cf"><path d="M 43.003906 -78.667969 L 88.363281 100.167969 L 3.308594 121.742188 L -42.050781 -57.09375 Z M 43.003906 -78.667969 " clip-rule="nonzero"/></clipPath><clipPath id="013d2807a2"><path d="M 43.003906 -78.667969 L 88.363281 100.167969 L 3.308594 121.742188 L -42.050781 -57.09375 Z M 43.003906 -78.667969 " clip-rule="nonzero"/></clipPath><clipPath id="6def991067"><path d="M 52 32 L 58 32 L 58 38 L 52 38 Z M 52 32 " clip-rule="nonzero"/></clipPath><clipPath id="b34a2193b7"><path d="M 43.003906 -78.667969 L 88.363281 100.167969 L 3.308594 121.742188 L -42.050781 -57.09375 Z M 43.003906 -78.667969 " clip-rule="nonzero"/></clipPath><clipPath id="511f491ab9"><path d="M 43.003906 -78.667969 L 88.363281 100.167969 L 3.308594 121.742188 L -42.050781 -57.09375 Z M 43.003906 -78.667969 " clip-rule="nonzero"/></clipPath><clipPath id="66f017808e"><path d="M 56 46 L 61 46 L 61 51 L 56 51 Z M 56 46 " clip-rule="nonzero"/></clipPath><clipPath id="6ade095a76"><path d="M 43.003906 -78.667969 L 88.363281 100.167969 L 3.308594 121.742188 L -42.050781 -57.09375 Z M 43.003906 -78.667969 " clip-rule="nonzero"/></clipPath><clipPath id="3c1cda1b67"><path d="M 43.003906 -78.667969 L 88.363281 100.167969 L 3.308594 121.742188 L -42.050781 -57.09375 Z M 43.003906 -78.667969 " clip-rule="nonzero"/></clipPath><clipPath id="e8d405c415"><path d="M 59 59 L 65 59 L 65 65 L 59 65 Z M 59 59 " clip-rule="nonzero"/></clipPath><clipPath id="54f2b89496"><path d="M 43.003906 -78.667969 L 88.363281 100.167969 L 3.308594 121.742188 L -42.050781 -57.09375 Z M 43.003906 -78.667969 " clip-rule="nonzero"/></clipPath><clipPath id="f06a798597"><path d="M 43.003906 -78.667969 L 88.363281 100.167969 L 3.308594 121.742188 L -42.050781 -57.09375 Z M 43.003906 -78.667969 " clip-rule="nonzero"/></clipPath><clipPath id="bff3f9b5e6"><path d="M 62 72 L 68 72 L 68 78 L 62 78 Z M 62 72 " clip-rule="nonzero"/></clipPath><clipPath id="a7766e9732"><path d="M 43.003906 -78.667969 L 88.363281 100.167969 L 3.308594 121.742188 L -42.050781 -57.09375 Z M 43.003906 -78.667969 " clip-rule="nonzero"/></clipPath><clipPath id="bea9302ca5"><path d="M 43.003906 -78.667969 L 88.363281 100.167969 L 3.308594 121.742188 L -42.050781 -57.09375 Z M 43.003906 -78.667969 " clip-rule="nonzero"/></clipPath><clipPath id="ccb432af20"><path d="M 66 86 L 72 86 L 72 92 L 66 92 Z M 66 86 " clip-rule="nonzero"/></clipPath><clipPath id="4c836ad15f"><path d="M 43.003906 -78.667969 L 88.363281 100.167969 L 3.308594 121.742188 L -42.050781 -57.09375 Z M 43.003906 -78.667969 " clip-rule="nonzero"/></clipPath><clipPath id="600c260041"><path d="M 43.003906 -78.667969 L 88.363281 100.167969 L 3.308594 121.742188 L -42.050781 -57.09375 Z M 43.003906 -78.667969 " clip-rule="nonzero"/></clipPath><clipPath id="a723301a9b"><path d="M 69 99 L 75 99 L 75 105 L 69 105 Z M 69 99 " clip-rule="nonzero"/></clipPath><clipPath id="f54faea4ce"><path d="M 43.003906 -78.667969 L 88.363281 100.167969 L 3.308594 121.742188 L -42.050781 -57.09375 Z M 43.003906 -78.667969 " clip-rule="nonzero"/></clipPath><clipPath id="e865a18d00"><path d="M 43.003906 -78.667969 L 88.363281 100.167969 L 3.308594 121.742188 L -42.050781 -57.09375 Z M 43.003906 -78.667969 " clip-rule="nonzero"/></clipPath><clipPath id="43fa66cc9a"><path d="M 35 22 L 41 22 L 41 28 L 35 28 Z M 35 22 " clip-rule="nonzero"/></clipPath><clipPath id="b77bf07de8"><path d="M 43.003906 -78.667969 L 88.363281 100.167969 L 3.308594 121.742188 L -42.050781 -57.09375 Z M 43.003906 -78.667969 " clip-rule="nonzero"/></clipPath><clipPath id="e8526f2667"><path d="M 43.003906 -78.667969 L 88.363281 100.167969 L 3.308594 121.742188 L -42.050781 -57.09375 Z M 43.003906 -78.667969 " clip-rule="nonzero"/></clipPath><clipPath id="c12a76aca3"><path d="M 39 36 L 45 36 L 45 41 L 39 41 Z M 39 36 " clip-rule="nonzero"/></clipPath><clipPath id="00d3efaf75"><path d="M 43.003906 -78.667969 L 88.363281 100.167969 L 3.308594 121.742188 L -42.050781 -57.09375 Z M 43.003906 -78.667969 " clip-rule="nonzero"/></clipPath><clipPath id="6f1af57315"><path d="M 43.003906 -78.667969 L 88.363281 100.167969 L 3.308594 121.742188 L -42.050781 -57.09375 Z M 43.003906 -78.667969 " clip-rule="nonzero"/></clipPath><clipPath id="8801f33b17"><path d="M 42 49 L 48 49 L 48 55 L 42 55 Z M 42 49 " clip-rule="nonzero"/></clipPath><clipPath id="1230e6bd84"><path d="M 43.003906 -78.667969 L 88.363281 100.167969 L 3.308594 121.742188 L -42.050781 -57.09375 Z M 43.003906 -78.667969 " clip-rule="nonzero"/></clipPath><clipPath id="b90d3f76a0"><path d="M 43.003906 -78.667969 L 88.363281 100.167969 L 3.308594 121.742188 L -42.050781 -57.09375 Z M 43.003906 -78.667969 " clip-rule="nonzero"/></clipPath><clipPath id="e7f89f2587"><path d="M 46 62 L 51 62 L 51 68 L 46 68 Z M 46 62 " clip-rule="nonzero"/></clipPath><clipPath id="f70e377bff"><path d="M 43.003906 -78.667969 L 88.363281 100.167969 L 3.308594 121.742188 L -42.050781 -57.09375 Z M 43.003906 -78.667969 " clip-rule="nonzero"/></clipPath><clipPath id="483399b94c"><path d="M 43.003906 -78.667969 L 88.363281 100.167969 L 3.308594 121.742188 L -42.050781 -57.09375 Z M 43.003906 -78.667969 " clip-rule="nonzero"/></clipPath><clipPath id="7ac343a612"><path d="M 49 76 L 55 76 L 55 82 L 49 82 Z M 49 76 " clip-rule="nonzero"/></clipPath><clipPath id="162018ccc8"><path d="M 43.003906 -78.667969 L 88.363281 100.167969 L 3.308594 121.742188 L -42.050781 -57.09375 Z M 43.003906 -78.667969 " clip-rule="nonzero"/></clipPath><clipPath id="59960af94e"><path d="M 43.003906 -78.667969 L 88.363281 100.167969 L 3.308594 121.742188 L -42.050781 -57.09375 Z M 43.003906 -78.667969 " clip-rule="nonzero"/></clipPath><clipPath id="647511d8a8"><path d="M 52 89 L 58 89 L 58 95 L 52 95 Z M 52 89 " clip-rule="nonzero"/></clipPath><clipPath id="3efa35f47a"><path d="M 43.003906 -78.667969 L 88.363281 100.167969 L 3.308594 121.742188 L -42.050781 -57.09375 Z M 43.003906 -78.667969 " clip-rule="nonzero"/></clipPath><clipPath id="21301141c2"><path d="M 43.003906 -78.667969 L 88.363281 100.167969 L 3.308594 121.742188 L -42.050781 -57.09375 Z M 43.003906 -78.667969 " clip-rule="nonzero"/></clipPath><clipPath id="07c629c303"><path d="M 56 103 L 62 103 L 62 108 L 56 108 Z M 56 103 " clip-rule="nonzero"/></clipPath><clipPath id="41b580199e"><path d="M 43.003906 -78.667969 L 88.363281 100.167969 L 3.308594 121.742188 L -42.050781 -57.09375 Z M 43.003906 -78.667969 " clip-rule="nonzero"/></clipPath><clipPath id="e4d90cc107"><path d="M 43.003906 -78.667969 L 88.363281 100.167969 L 3.308594 121.742188 L -42.050781 -57.09375 Z M 43.003906 -78.667969 " clip-rule="nonzero"/></clipPath><clipPath id="89e9eabc7c"><path d="M 22 25 L 28 25 L 28 31 L 22 31 Z M 22 25 " clip-rule="nonzero"/></clipPath><clipPath id="f1ca54db1c"><path d="M 43.003906 -78.667969 L 88.363281 100.167969 L 3.308594 121.742188 L -42.050781 -57.09375 Z M 43.003906 -78.667969 " clip-rule="nonzero"/></clipPath><clipPath id="cb2b848e40"><path d="M 43.003906 -78.667969 L 88.363281 100.167969 L 3.308594 121.742188 L -42.050781 -57.09375 Z M 43.003906 -78.667969 " clip-rule="nonzero"/></clipPath><clipPath id="76464ced24"><path d="M 25 39 L 31 39 L 31 45 L 25 45 Z M 25 39 " clip-rule="nonzero"/></clipPath><clipPath id="662ae6574d"><path d="M 43.003906 -78.667969 L 88.363281 100.167969 L 3.308594 121.742188 L -42.050781 -57.09375 Z M 43.003906 -78.667969 " clip-rule="nonzero"/></clipPath><clipPath id="62d221e15f"><path d="M 43.003906 -78.667969 L 88.363281 100.167969 L 3.308594 121.742188 L -42.050781 -57.09375 Z M 43.003906 -78.667969 " clip-rule="nonzero"/></clipPath><clipPath id="13d5c3f682"><path d="M 29 52 L 35 52 L 35 58 L 29 58 Z M 29 52 " clip-rule="nonzero"/></clipPath><clipPath id="5a74816dc6"><path d="M 43.003906 -78.667969 L 88.363281 100.167969 L 3.308594 121.742188 L -42.050781 -57.09375 Z M 43.003906 -78.667969 " clip-rule="nonzero"/></clipPath><clipPath id="7c7e1ed244"><path d="M 43.003906 -78.667969 L 88.363281 100.167969 L 3.308594 121.742188 L -42.050781 -57.09375 Z M 43.003906 -78.667969 " clip-rule="nonzero"/></clipPath><clipPath id="29cea4f6f6"><path d="M 32 66 L 38 66 L 38 72 L 32 72 Z M 32 66 " clip-rule="nonzero"/></clipPath><clipPath id="ea6a5ffca5"><path d="M 43.003906 -78.667969 L 88.363281 100.167969 L 3.308594 121.742188 L -42.050781 -57.09375 Z M 43.003906 -78.667969 " clip-rule="nonzero"/></clipPath><clipPath id="4a91dde0d5"><path d="M 43.003906 -78.667969 L 88.363281 100.167969 L 3.308594 121.742188 L -42.050781 -57.09375 Z M 43.003906 -78.667969 " clip-rule="nonzero"/></clipPath><clipPath id="e3ea44920c"><path d="M 36 79 L 41 79 L 41 85 L 36 85 Z M 36 79 " clip-rule="nonzero"/></clipPath><clipPath id="f8a63d1d19"><path d="M 43.003906 -78.667969 L 88.363281 100.167969 L 3.308594 121.742188 L -42.050781 -57.09375 Z M 43.003906 -78.667969 " clip-rule="nonzero"/></clipPath><clipPath id="19549799dc"><path d="M 43.003906 -78.667969 L 88.363281 100.167969 L 3.308594 121.742188 L -42.050781 -57.09375 Z M 43.003906 -78.667969 " clip-rule="nonzero"/></clipPath><clipPath id="963b94c787"><path d="M 39 93 L 45 93 L 45 98 L 39 98 Z M 39 93 " clip-rule="nonzero"/></clipPath><clipPath id="027852fc42"><path d="M 43.003906 -78.667969 L 88.363281 100.167969 L 3.308594 121.742188 L -42.050781 -57.09375 Z M 43.003906 -78.667969 " clip-rule="nonzero"/></clipPath><clipPath id="0203dacd6c"><path d="M 43.003906 -78.667969 L 88.363281 100.167969 L 3.308594 121.742188 L -42.050781 -57.09375 Z M 43.003906 -78.667969 " clip-rule="nonzero"/></clipPath><clipPath id="dedf24d783"><path d="M 42 106 L 48 106 L 48 112 L 42 112 Z M 42 106 " clip-rule="nonzero"/></clipPath><clipPath id="1d8acb8d81"><path d="M 43.003906 -78.667969 L 88.363281 100.167969 L 3.308594 121.742188 L -42.050781 -57.09375 Z M 43.003906 -78.667969 " clip-rule="nonzero"/></clipPath><clipPath id="85b76bb4d3"><path d="M 43.003906 -78.667969 L 88.363281 100.167969 L 3.308594 121.742188 L -42.050781 -57.09375 Z M 43.003906 -78.667969 " clip-rule="nonzero"/></clipPath><clipPath id="7b91fb3e82"><path d="M 9 29 L 14 29 L 14 35 L 9 35 Z M 9 29 " clip-rule="nonzero"/></clipPath><clipPath id="7e9e3ed0be"><path d="M 43.003906 -78.667969 L 88.363281 100.167969 L 3.308594 121.742188 L -42.050781 -57.09375 Z M 43.003906 -78.667969 " clip-rule="nonzero"/></clipPath><clipPath id="ed2cce3fe4"><path d="M 43.003906 -78.667969 L 88.363281 100.167969 L 3.308594 121.742188 L -42.050781 -57.09375 Z M 43.003906 -78.667969 " clip-rule="nonzero"/></clipPath><clipPath id="b906410f36"><path d="M 12 42 L 18 42 L 18 48 L 12 48 Z M 12 42 " clip-rule="nonzero"/></clipPath><clipPath id="0c5f263cde"><path d="M 43.003906 -78.667969 L 88.363281 100.167969 L 3.308594 121.742188 L -42.050781 -57.09375 Z M 43.003906 -78.667969 " clip-rule="nonzero"/></clipPath><clipPath id="7ed7976b6d"><path d="M 43.003906 -78.667969 L 88.363281 100.167969 L 3.308594 121.742188 L -42.050781 -57.09375 Z M 43.003906 -78.667969 " clip-rule="nonzero"/></clipPath><clipPath id="4ec1a74314"><path d="M 15 56 L 21 56 L 21 62 L 15 62 Z M 15 56 " clip-rule="nonzero"/></clipPath><clipPath id="3b3daf1917"><path d="M 43.003906 -78.667969 L 88.363281 100.167969 L 3.308594 121.742188 L -42.050781 -57.09375 Z M 43.003906 -78.667969 " clip-rule="nonzero"/></clipPath><clipPath id="4c867aa717"><path d="M 43.003906 -78.667969 L 88.363281 100.167969 L 3.308594 121.742188 L -42.050781 -57.09375 Z M 43.003906 -78.667969 " clip-rule="nonzero"/></clipPath><clipPath id="94fe5dca27"><path d="M 19 69 L 25 69 L 25 75 L 19 75 Z M 19 69 " clip-rule="nonzero"/></clipPath><clipPath id="1158fcf1c5"><path d="M 43.003906 -78.667969 L 88.363281 100.167969 L 3.308594 121.742188 L -42.050781 -57.09375 Z M 43.003906 -78.667969 " clip-rule="nonzero"/></clipPath><clipPath id="11ccb616e1"><path d="M 43.003906 -78.667969 L 88.363281 100.167969 L 3.308594 121.742188 L -42.050781 -57.09375 Z M 43.003906 -78.667969 " clip-rule="nonzero"/></clipPath><clipPath id="9f49008a2d"><path d="M 22 83 L 28 83 L 28 88 L 22 88 Z M 22 83 " clip-rule="nonzero"/></clipPath><clipPath id="dc58dbd88c"><path d="M 43.003906 -78.667969 L 88.363281 100.167969 L 3.308594 121.742188 L -42.050781 -57.09375 Z M 43.003906 -78.667969 " clip-rule="nonzero"/></clipPath><clipPath id="ada9835977"><path d="M 43.003906 -78.667969 L 88.363281 100.167969 L 3.308594 121.742188 L -42.050781 -57.09375 Z M 43.003906 -78.667969 " clip-rule="nonzero"/></clipPath><clipPath id="fffc91c1bc"><path d="M 26 96 L 31 96 L 31 102 L 26 102 Z M 26 96 " clip-rule="nonzero"/></clipPath><clipPath id="389dbc82ea"><path d="M 43.003906 -78.667969 L 88.363281 100.167969 L 3.308594 121.742188 L -42.050781 -57.09375 Z M 43.003906 -78.667969 " clip-rule="nonzero"/></clipPath><clipPath id="bc3e55e1e6"><path d="M 43.003906 -78.667969 L 88.363281 100.167969 L 3.308594 121.742188 L -42.050781 -57.09375 Z M 43.003906 -78.667969 " clip-rule="nonzero"/></clipPath><clipPath id="cf4b689eb5"><path d="M 29 109 L 35 109 L 35 115 L 29 115 Z M 29 109 " clip-rule="nonzero"/></clipPath><clipPath id="9db7cae737"><path d="M 43.003906 -78.667969 L 88.363281 100.167969 L 3.308594 121.742188 L -42.050781 -57.09375 Z M 43.003906 -78.667969 " clip-rule="nonzero"/></clipPath><clipPath id="40e2aca36d"><path d="M 43.003906 -78.667969 L 88.363281 100.167969 L 3.308594 121.742188 L -42.050781 -57.09375 Z M 43.003906 -78.667969 " clip-rule="nonzero"/></clipPath><clipPath id="3e6e247002"><path d="M 0 32 L 1 32 L 1 38 L 0 38 Z M 0 32 " clip-rule="nonzero"/></clipPath><clipPath id="a82d024081"><path d="M 43.003906 -78.667969 L 88.363281 100.167969 L 3.308594 121.742188 L -42.050781 -57.09375 Z M 43.003906 -78.667969 " clip-rule="nonzero"/></clipPath><clipPath id="d454903288"><path d="M 43.003906 -78.667969 L 88.363281 100.167969 L 3.308594 121.742188 L -42.050781 -57.09375 Z M 43.003906 -78.667969 " clip-rule="nonzero"/></clipPath><clipPath id="dfe87b9720"><path d="M 0 46 L 5 46 L 5 52 L 0 52 Z M 0 46 " clip-rule="nonzero"/></clipPath><clipPath id="c49741ae7e"><path d="M 43.003906 -78.667969 L 88.363281 100.167969 L 3.308594 121.742188 L -42.050781 -57.09375 Z M 43.003906 -78.667969 " clip-rule="nonzero"/></clipPath><clipPath id="92ce409436"><path d="M 43.003906 -78.667969 L 88.363281 100.167969 L 3.308594 121.742188 L -42.050781 -57.09375 Z M 43.003906 -78.667969 " clip-rule="nonzero"/></clipPath><clipPath id="5f0da81cc7"><path d="M 2 59 L 8 59 L 8 65 L 2 65 Z M 2 59 " clip-rule="nonzero"/></clipPath><clipPath id="a7cf05a5c2"><path d="M 43.003906 -78.667969 L 88.363281 100.167969 L 3.308594 121.742188 L -42.050781 -57.09375 Z M 43.003906 -78.667969 " clip-rule="nonzero"/></clipPath><clipPath id="7023ea0725"><path d="M 43.003906 -78.667969 L 88.363281 100.167969 L 3.308594 121.742188 L -42.050781 -57.09375 Z M 43.003906 -78.667969 " clip-rule="nonzero"/></clipPath><clipPath id="4241bc3870"><path d="M 5 73 L 11 73 L 11 78 L 5 78 Z M 5 73 " clip-rule="nonzero"/></clipPath><clipPath id="c1026bf527"><path d="M 43.003906 -78.667969 L 88.363281 100.167969 L 3.308594 121.742188 L -42.050781 -57.09375 Z M 43.003906 -78.667969 " clip-rule="nonzero"/></clipPath><clipPath id="bbae98cdf6"><path d="M 43.003906 -78.667969 L 88.363281 100.167969 L 3.308594 121.742188 L -42.050781 -57.09375 Z M 43.003906 -78.667969 " clip-rule="nonzero"/></clipPath><clipPath id="7726b24b82"><path d="M 9 86 L 15 86 L 15 92 L 9 92 Z M 9 86 " clip-rule="nonzero"/></clipPath><clipPath id="3bfb3f5f65"><path d="M 43.003906 -78.667969 L 88.363281 100.167969 L 3.308594 121.742188 L -42.050781 -57.09375 Z M 43.003906 -78.667969 " clip-rule="nonzero"/></clipPath><clipPath id="b110b4fcf4"><path d="M 43.003906 -78.667969 L 88.363281 100.167969 L 3.308594 121.742188 L -42.050781 -57.09375 Z M 43.003906 -78.667969 " clip-rule="nonzero"/></clipPath><clipPath id="7e506e18e3"><path d="M 12 99 L 18 99 L 18 105 L 12 105 Z M 12 99 " clip-rule="nonzero"/></clipPath><clipPath id="e24e983530"><path d="M 43.003906 -78.667969 L 88.363281 100.167969 L 3.308594 121.742188 L -42.050781 -57.09375 Z M 43.003906 -78.667969 " clip-rule="nonzero"/></clipPath><clipPath id="03ad12820e"><path d="M 43.003906 -78.667969 L 88.363281 100.167969 L 3.308594 121.742188 L -42.050781 -57.09375 Z M 43.003906 -78.667969 " clip-rule="nonzero"/></clipPath><clipPath id="ee47baba86"><path d="M 16 113 L 22 113 L 22 119 L 16 119 Z M 16 113 " clip-rule="nonzero"/></clipPath><clipPath id="5bb909897f"><path d="M 43.003906 -78.667969 L 88.363281 100.167969 L 3.308594 121.742188 L -42.050781 -57.09375 Z M 43.003906 -78.667969 " clip-rule="nonzero"/></clipPath><clipPath id="475422c5dc"><path d="M 43.003906 -78.667969 L 88.363281 100.167969 L 3.308594 121.742188 L -42.050781 -57.09375 Z M 43.003906 -78.667969 " clip-rule="nonzero"/></clipPath><clipPath id="fbd1b65b2c"><path d="M 0 89 L 1 89 L 1 95 L 0 95 Z M 0 89 " clip-rule="nonzero"/></clipPath><clipPath id="c8628ca07b"><path d="M 43.003906 -78.667969 L 88.363281 100.167969 L 3.308594 121.742188 L -42.050781 -57.09375 Z M 43.003906 -78.667969 " clip-rule="nonzero"/></clipPath><clipPath id="02904e87f9"><path d="M 43.003906 -78.667969 L 88.363281 100.167969 L 3.308594 121.742188 L -42.050781 -57.09375 Z M 43.003906 -78.667969 " clip-rule="nonzero"/></clipPath><clipPath id="0f2ca66367"><path d="M 0 103 L 5 103 L 5 109 L 0 109 Z M 0 103 " clip-rule="nonzero"/></clipPath><clipPath id="2d3fafa9d7"><path d="M 43.003906 -78.667969 L 88.363281 100.167969 L 3.308594 121.742188 L -42.050781 -57.09375 Z M 43.003906 -78.667969 " clip-rule="nonzero"/></clipPath><clipPath id="7de7dd5a73"><path d="M 43.003906 -78.667969 L 88.363281 100.167969 L 3.308594 121.742188 L -42.050781 -57.09375 Z M 43.003906 -78.667969 " clip-rule="nonzero"/></clipPath><clipPath id="773cd35bbb"><path d="M 2 116 L 8 116 L 8 122 L 2 122 Z M 2 116 " clip-rule="nonzero"/></clipPath><clipPath id="b2b27db215"><path d="M 43.003906 -78.667969 L 88.363281 100.167969 L 3.308594 121.742188 L -42.050781 -57.09375 Z M 43.003906 -78.667969 " clip-rule="nonzero"/></clipPath><clipPath id="05596526d0"><path d="M 43.003906 -78.667969 L 88.363281 100.167969 L 3.308594 121.742188 L -42.050781 -57.09375 Z M 43.003906 -78.667969 " clip-rule="nonzero"/></clipPath><clipPath id="04eeba3ddd"><path d="M 1437 772 L 1440 772 L 1440 783 L 1437 783 Z M 1437 772 " clip-rule="nonzero"/></clipPath><clipPath id="4dddf41d59"><path d="M 1494.65625 641.339844 L 1441.808594 1003.503906 L 1269.632812 978.378906 L 1322.480469 616.214844 Z M 1494.65625 641.339844 " clip-rule="nonzero"/></clipPath><clipPath id="d189dbf6fa"><path d="M 1494.65625 641.339844 L 1441.808594 1003.503906 L 1269.632812 978.378906 L 1322.480469 616.214844 Z M 1494.65625 641.339844 " clip-rule="nonzero"/></clipPath><clipPath id="691dd09428"><path d="M 1433 799 L 1440 799 L 1440 810 L 1433 810 Z M 1433 799 " clip-rule="nonzero"/></clipPath><clipPath id="6abc33a51c"><path d="M 1494.65625 641.339844 L 1441.808594 1003.503906 L 1269.632812 978.378906 L 1322.480469 616.214844 Z M 1494.65625 641.339844 " clip-rule="nonzero"/></clipPath><clipPath id="f06e434a08"><path d="M 1494.65625 641.339844 L 1441.808594 1003.503906 L 1269.632812 978.378906 L 1322.480469 616.214844 Z M 1494.65625 641.339844 " clip-rule="nonzero"/></clipPath><clipPath id="27a91b117f"><path d="M 1430 632 L 1440 632 L 1440 643 L 1430 643 Z M 1430 632 " clip-rule="nonzero"/></clipPath><clipPath id="0a1257bd05"><path d="M 1494.65625 641.339844 L 1441.808594 1003.503906 L 1269.632812 978.378906 L 1322.480469 616.214844 Z M 1494.65625 641.339844 " clip-rule="nonzero"/></clipPath><clipPath id="f4b2b3c63e"><path d="M 1494.65625 641.339844 L 1441.808594 1003.503906 L 1269.632812 978.378906 L 1322.480469 616.214844 Z M 1494.65625 641.339844 " clip-rule="nonzero"/></clipPath><clipPath id="ec5363b7b4"><path d="M 1426 659 L 1436 659 L 1436 670 L 1426 670 Z M 1426 659 " clip-rule="nonzero"/></clipPath><clipPath id="782916835e"><path d="M 1494.65625 641.339844 L 1441.808594 1003.503906 L 1269.632812 978.378906 L 1322.480469 616.214844 Z M 1494.65625 641.339844 " clip-rule="nonzero"/></clipPath><clipPath id="54a27e7b56"><path d="M 1494.65625 641.339844 L 1441.808594 1003.503906 L 1269.632812 978.378906 L 1322.480469 616.214844 Z M 1494.65625 641.339844 " clip-rule="nonzero"/></clipPath><clipPath id="89ca424448"><path d="M 1422 687 L 1432 687 L 1432 697 L 1422 697 Z M 1422 687 " clip-rule="nonzero"/></clipPath><clipPath id="0ea0a293ec"><path d="M 1494.65625 641.339844 L 1441.808594 1003.503906 L 1269.632812 978.378906 L 1322.480469 616.214844 Z M 1494.65625 641.339844 " clip-rule="nonzero"/></clipPath><clipPath id="23cac94bb1"><path d="M 1494.65625 641.339844 L 1441.808594 1003.503906 L 1269.632812 978.378906 L 1322.480469 616.214844 Z M 1494.65625 641.339844 " clip-rule="nonzero"/></clipPath><clipPath id="7c01add743"><path d="M 1418 714 L 1429 714 L 1429 724 L 1418 724 Z M 1418 714 " clip-rule="nonzero"/></clipPath><clipPath id="467c847d1a"><path d="M 1494.65625 641.339844 L 1441.808594 1003.503906 L 1269.632812 978.378906 L 1322.480469 616.214844 Z M 1494.65625 641.339844 " clip-rule="nonzero"/></clipPath><clipPath id="9369378d2f"><path d="M 1494.65625 641.339844 L 1441.808594 1003.503906 L 1269.632812 978.378906 L 1322.480469 616.214844 Z M 1494.65625 641.339844 " clip-rule="nonzero"/></clipPath><clipPath id="8a6ad0a768"><path d="M 1414 741 L 1425 741 L 1425 751 L 1414 751 Z M 1414 741 " clip-rule="nonzero"/></clipPath><clipPath id="bbdbac28b2"><path d="M 1494.65625 641.339844 L 1441.808594 1003.503906 L 1269.632812 978.378906 L 1322.480469 616.214844 Z M 1494.65625 641.339844 " clip-rule="nonzero"/></clipPath><clipPath id="c9e4a247e1"><path d="M 1494.65625 641.339844 L 1441.808594 1003.503906 L 1269.632812 978.378906 L 1322.480469 616.214844 Z M 1494.65625 641.339844 " clip-rule="nonzero"/></clipPath><clipPath id="54a5c5eedd"><path d="M 1410 768 L 1421 768 L 1421 779 L 1410 779 Z M 1410 768 " clip-rule="nonzero"/></clipPath><clipPath id="58e97e6520"><path d="M 1494.65625 641.339844 L 1441.808594 1003.503906 L 1269.632812 978.378906 L 1322.480469 616.214844 Z M 1494.65625 641.339844 " clip-rule="nonzero"/></clipPath><clipPath id="05e1c3c3cc"><path d="M 1494.65625 641.339844 L 1441.808594 1003.503906 L 1269.632812 978.378906 L 1322.480469 616.214844 Z M 1494.65625 641.339844 " clip-rule="nonzero"/></clipPath><clipPath id="e087b7e6b9"><path d="M 1406 795 L 1417 795 L 1417 806 L 1406 806 Z M 1406 795 " clip-rule="nonzero"/></clipPath><clipPath id="081ecc2232"><path d="M 1494.65625 641.339844 L 1441.808594 1003.503906 L 1269.632812 978.378906 L 1322.480469 616.214844 Z M 1494.65625 641.339844 " clip-rule="nonzero"/></clipPath><clipPath id="9c474d92fc"><path d="M 1494.65625 641.339844 L 1441.808594 1003.503906 L 1269.632812 978.378906 L 1322.480469 616.214844 Z M 1494.65625 641.339844 " clip-rule="nonzero"/></clipPath><clipPath id="991d7db31d"><path d="M 1403 628 L 1413 628 L 1413 639 L 1403 639 Z M 1403 628 " clip-rule="nonzero"/></clipPath><clipPath id="1d4507cfd5"><path d="M 1494.65625 641.339844 L 1441.808594 1003.503906 L 1269.632812 978.378906 L 1322.480469 616.214844 Z M 1494.65625 641.339844 " clip-rule="nonzero"/></clipPath><clipPath id="9ba39b532e"><path d="M 1494.65625 641.339844 L 1441.808594 1003.503906 L 1269.632812 978.378906 L 1322.480469 616.214844 Z M 1494.65625 641.339844 " clip-rule="nonzero"/></clipPath><clipPath id="423cdaa241"><path d="M 1399 655 L 1409 655 L 1409 666 L 1399 666 Z M 1399 655 " clip-rule="nonzero"/></clipPath><clipPath id="8ad74bdd94"><path d="M 1494.65625 641.339844 L 1441.808594 1003.503906 L 1269.632812 978.378906 L 1322.480469 616.214844 Z M 1494.65625 641.339844 " clip-rule="nonzero"/></clipPath><clipPath id="6ddab3fee9"><path d="M 1494.65625 641.339844 L 1441.808594 1003.503906 L 1269.632812 978.378906 L 1322.480469 616.214844 Z M 1494.65625 641.339844 " clip-rule="nonzero"/></clipPath><clipPath id="c3a4088bea"><path d="M 1395 683 L 1405 683 L 1405 693 L 1395 693 Z M 1395 683 " clip-rule="nonzero"/></clipPath><clipPath id="d905837546"><path d="M 1494.65625 641.339844 L 1441.808594 1003.503906 L 1269.632812 978.378906 L 1322.480469 616.214844 Z M 1494.65625 641.339844 " clip-rule="nonzero"/></clipPath><clipPath id="3a6d3cf9d4"><path d="M 1494.65625 641.339844 L 1441.808594 1003.503906 L 1269.632812 978.378906 L 1322.480469 616.214844 Z M 1494.65625 641.339844 " clip-rule="nonzero"/></clipPath><clipPath id="5db350196a"><path d="M 1391 710 L 1401 710 L 1401 720 L 1391 720 Z M 1391 710 " clip-rule="nonzero"/></clipPath><clipPath id="4ad6684ea9"><path d="M 1494.65625 641.339844 L 1441.808594 1003.503906 L 1269.632812 978.378906 L 1322.480469 616.214844 Z M 1494.65625 641.339844 " clip-rule="nonzero"/></clipPath><clipPath id="8c581731ac"><path d="M 1494.65625 641.339844 L 1441.808594 1003.503906 L 1269.632812 978.378906 L 1322.480469 616.214844 Z M 1494.65625 641.339844 " clip-rule="nonzero"/></clipPath><clipPath id="8a39c7a9a4"><path d="M 1387 737 L 1397 737 L 1397 748 L 1387 748 Z M 1387 737 " clip-rule="nonzero"/></clipPath><clipPath id="19d2917b87"><path d="M 1494.65625 641.339844 L 1441.808594 1003.503906 L 1269.632812 978.378906 L 1322.480469 616.214844 Z M 1494.65625 641.339844 " clip-rule="nonzero"/></clipPath><clipPath id="3192ff442e"><path d="M 1494.65625 641.339844 L 1441.808594 1003.503906 L 1269.632812 978.378906 L 1322.480469 616.214844 Z M 1494.65625 641.339844 " clip-rule="nonzero"/></clipPath><clipPath id="eb1f5a987b"><path d="M 1383 764 L 1393 764 L 1393 775 L 1383 775 Z M 1383 764 " clip-rule="nonzero"/></clipPath><clipPath id="1f23b8f049"><path d="M 1494.65625 641.339844 L 1441.808594 1003.503906 L 1269.632812 978.378906 L 1322.480469 616.214844 Z M 1494.65625 641.339844 " clip-rule="nonzero"/></clipPath><clipPath id="4d074fd8e7"><path d="M 1494.65625 641.339844 L 1441.808594 1003.503906 L 1269.632812 978.378906 L 1322.480469 616.214844 Z M 1494.65625 641.339844 " clip-rule="nonzero"/></clipPath><clipPath id="a5834c6c68"><path d="M 1379 791 L 1390 791 L 1390 802 L 1379 802 Z M 1379 791 " clip-rule="nonzero"/></clipPath><clipPath id="9df925c53a"><path d="M 1494.65625 641.339844 L 1441.808594 1003.503906 L 1269.632812 978.378906 L 1322.480469 616.214844 Z M 1494.65625 641.339844 " clip-rule="nonzero"/></clipPath><clipPath id="11e045bf60"><path d="M 1494.65625 641.339844 L 1441.808594 1003.503906 L 1269.632812 978.378906 L 1322.480469 616.214844 Z M 1494.65625 641.339844 " clip-rule="nonzero"/></clipPath><clipPath id="dee3ad7d38"><path d="M 1376 624 L 1386 624 L 1386 635 L 1376 635 Z M 1376 624 " clip-rule="nonzero"/></clipPath><clipPath id="dd987c87df"><path d="M 1494.65625 641.339844 L 1441.808594 1003.503906 L 1269.632812 978.378906 L 1322.480469 616.214844 Z M 1494.65625 641.339844 " clip-rule="nonzero"/></clipPath><clipPath id="7c02593734"><path d="M 1494.65625 641.339844 L 1441.808594 1003.503906 L 1269.632812 978.378906 L 1322.480469 616.214844 Z M 1494.65625 641.339844 " clip-rule="nonzero"/></clipPath><clipPath id="d074ac02be"><path d="M 1372 652 L 1382 652 L 1382 662 L 1372 662 Z M 1372 652 " clip-rule="nonzero"/></clipPath><clipPath id="bba95b6b5c"><path d="M 1494.65625 641.339844 L 1441.808594 1003.503906 L 1269.632812 978.378906 L 1322.480469 616.214844 Z M 1494.65625 641.339844 " clip-rule="nonzero"/></clipPath><clipPath id="1ceb07942d"><path d="M 1494.65625 641.339844 L 1441.808594 1003.503906 L 1269.632812 978.378906 L 1322.480469 616.214844 Z M 1494.65625 641.339844 " clip-rule="nonzero"/></clipPath><clipPath id="47579f90ff"><path d="M 1368 679 L 1378 679 L 1378 689 L 1368 689 Z M 1368 679 " clip-rule="nonzero"/></clipPath><clipPath id="93fa91ae28"><path d="M 1494.65625 641.339844 L 1441.808594 1003.503906 L 1269.632812 978.378906 L 1322.480469 616.214844 Z M 1494.65625 641.339844 " clip-rule="nonzero"/></clipPath><clipPath id="faea3584f9"><path d="M 1494.65625 641.339844 L 1441.808594 1003.503906 L 1269.632812 978.378906 L 1322.480469 616.214844 Z M 1494.65625 641.339844 " clip-rule="nonzero"/></clipPath><clipPath id="26ff6519bd"><path d="M 1364 706 L 1374 706 L 1374 716 L 1364 716 Z M 1364 706 " clip-rule="nonzero"/></clipPath><clipPath id="0f589eb4d7"><path d="M 1494.65625 641.339844 L 1441.808594 1003.503906 L 1269.632812 978.378906 L 1322.480469 616.214844 Z M 1494.65625 641.339844 " clip-rule="nonzero"/></clipPath><clipPath id="d10d7cccab"><path d="M 1494.65625 641.339844 L 1441.808594 1003.503906 L 1269.632812 978.378906 L 1322.480469 616.214844 Z M 1494.65625 641.339844 " clip-rule="nonzero"/></clipPath><clipPath id="4822193418"><path d="M 1360 733 L 1370 733 L 1370 744 L 1360 744 Z M 1360 733 " clip-rule="nonzero"/></clipPath><clipPath id="5be49e5e03"><path d="M 1494.65625 641.339844 L 1441.808594 1003.503906 L 1269.632812 978.378906 L 1322.480469 616.214844 Z M 1494.65625 641.339844 " clip-rule="nonzero"/></clipPath><clipPath id="83f6e1bf42"><path d="M 1494.65625 641.339844 L 1441.808594 1003.503906 L 1269.632812 978.378906 L 1322.480469 616.214844 Z M 1494.65625 641.339844 " clip-rule="nonzero"/></clipPath><clipPath id="054b693ae2"><path d="M 1356 760 L 1366 760 L 1366 771 L 1356 771 Z M 1356 760 " clip-rule="nonzero"/></clipPath><clipPath id="2cd669261d"><path d="M 1494.65625 641.339844 L 1441.808594 1003.503906 L 1269.632812 978.378906 L 1322.480469 616.214844 Z M 1494.65625 641.339844 " clip-rule="nonzero"/></clipPath><clipPath id="0f9a8bf4a0"><path d="M 1494.65625 641.339844 L 1441.808594 1003.503906 L 1269.632812 978.378906 L 1322.480469 616.214844 Z M 1494.65625 641.339844 " clip-rule="nonzero"/></clipPath><clipPath id="1a67cc3b75"><path d="M 1352 787 L 1362 787 L 1362 798 L 1352 798 Z M 1352 787 " clip-rule="nonzero"/></clipPath><clipPath id="e639a9e1e9"><path d="M 1494.65625 641.339844 L 1441.808594 1003.503906 L 1269.632812 978.378906 L 1322.480469 616.214844 Z M 1494.65625 641.339844 " clip-rule="nonzero"/></clipPath><clipPath id="2dfcedc3a2"><path d="M 1494.65625 641.339844 L 1441.808594 1003.503906 L 1269.632812 978.378906 L 1322.480469 616.214844 Z M 1494.65625 641.339844 " clip-rule="nonzero"/></clipPath><clipPath id="06cad7e927"><path d="M 1349 620 L 1359 620 L 1359 631 L 1349 631 Z M 1349 620 " clip-rule="nonzero"/></clipPath><clipPath id="e9abd46308"><path d="M 1494.65625 641.339844 L 1441.808594 1003.503906 L 1269.632812 978.378906 L 1322.480469 616.214844 Z M 1494.65625 641.339844 " clip-rule="nonzero"/></clipPath><clipPath id="e444966123"><path d="M 1494.65625 641.339844 L 1441.808594 1003.503906 L 1269.632812 978.378906 L 1322.480469 616.214844 Z M 1494.65625 641.339844 " clip-rule="nonzero"/></clipPath><clipPath id="5d09614b4e"><path d="M 1345 648 L 1355 648 L 1355 658 L 1345 658 Z M 1345 648 " clip-rule="nonzero"/></clipPath><clipPath id="f51779bafd"><path d="M 1494.65625 641.339844 L 1441.808594 1003.503906 L 1269.632812 978.378906 L 1322.480469 616.214844 Z M 1494.65625 641.339844 " clip-rule="nonzero"/></clipPath><clipPath id="eba1205983"><path d="M 1494.65625 641.339844 L 1441.808594 1003.503906 L 1269.632812 978.378906 L 1322.480469 616.214844 Z M 1494.65625 641.339844 " clip-rule="nonzero"/></clipPath><clipPath id="6aa163a86d"><path d="M 1341 675 L 1351 675 L 1351 685 L 1341 685 Z M 1341 675 " clip-rule="nonzero"/></clipPath><clipPath id="54c0ab09cb"><path d="M 1494.65625 641.339844 L 1441.808594 1003.503906 L 1269.632812 978.378906 L 1322.480469 616.214844 Z M 1494.65625 641.339844 " clip-rule="nonzero"/></clipPath><clipPath id="f9f932d9d5"><path d="M 1494.65625 641.339844 L 1441.808594 1003.503906 L 1269.632812 978.378906 L 1322.480469 616.214844 Z M 1494.65625 641.339844 " clip-rule="nonzero"/></clipPath><clipPath id="910bbd556a"><path d="M 1337 702 L 1347 702 L 1347 712 L 1337 712 Z M 1337 702 " clip-rule="nonzero"/></clipPath><clipPath id="238a284033"><path d="M 1494.65625 641.339844 L 1441.808594 1003.503906 L 1269.632812 978.378906 L 1322.480469 616.214844 Z M 1494.65625 641.339844 " clip-rule="nonzero"/></clipPath><clipPath id="2bead32fab"><path d="M 1494.65625 641.339844 L 1441.808594 1003.503906 L 1269.632812 978.378906 L 1322.480469 616.214844 Z M 1494.65625 641.339844 " clip-rule="nonzero"/></clipPath><clipPath id="2adeaf86b0"><path d="M 1333 729 L 1343 729 L 1343 740 L 1333 740 Z M 1333 729 " clip-rule="nonzero"/></clipPath><clipPath id="0b6f62cf29"><path d="M 1494.65625 641.339844 L 1441.808594 1003.503906 L 1269.632812 978.378906 L 1322.480469 616.214844 Z M 1494.65625 641.339844 " clip-rule="nonzero"/></clipPath><clipPath id="053907bc13"><path d="M 1494.65625 641.339844 L 1441.808594 1003.503906 L 1269.632812 978.378906 L 1322.480469 616.214844 Z M 1494.65625 641.339844 " clip-rule="nonzero"/></clipPath><clipPath id="fb9f9c69ce"><path d="M 1329 756 L 1339 756 L 1339 767 L 1329 767 Z M 1329 756 " clip-rule="nonzero"/></clipPath><clipPath id="e1483503ab"><path d="M 1494.65625 641.339844 L 1441.808594 1003.503906 L 1269.632812 978.378906 L 1322.480469 616.214844 Z M 1494.65625 641.339844 " clip-rule="nonzero"/></clipPath><clipPath id="d31191cb15"><path d="M 1494.65625 641.339844 L 1441.808594 1003.503906 L 1269.632812 978.378906 L 1322.480469 616.214844 Z M 1494.65625 641.339844 " clip-rule="nonzero"/></clipPath><clipPath id="83c638dad4"><path d="M 1325 783 L 1335 783 L 1335 794 L 1325 794 Z M 1325 783 " clip-rule="nonzero"/></clipPath><clipPath id="c3a264ea5d"><path d="M 1494.65625 641.339844 L 1441.808594 1003.503906 L 1269.632812 978.378906 L 1322.480469 616.214844 Z M 1494.65625 641.339844 " clip-rule="nonzero"/></clipPath><clipPath id="d3a938bee9"><path d="M 1494.65625 641.339844 L 1441.808594 1003.503906 L 1269.632812 978.378906 L 1322.480469 616.214844 Z M 1494.65625 641.339844 " clip-rule="nonzero"/></clipPath><clipPath id="24bad6f423"><path d="M 1321 616 L 1332 616 L 1332 627 L 1321 627 Z M 1321 616 " clip-rule="nonzero"/></clipPath><clipPath id="65848d7331"><path d="M 1494.65625 641.339844 L 1441.808594 1003.503906 L 1269.632812 978.378906 L 1322.480469 616.214844 Z M 1494.65625 641.339844 " clip-rule="nonzero"/></clipPath><clipPath id="ee39bad2ea"><path d="M 1494.65625 641.339844 L 1441.808594 1003.503906 L 1269.632812 978.378906 L 1322.480469 616.214844 Z M 1494.65625 641.339844 " clip-rule="nonzero"/></clipPath><clipPath id="7703560d45"><path d="M 1317 644 L 1328 644 L 1328 654 L 1317 654 Z M 1317 644 " clip-rule="nonzero"/></clipPath><clipPath id="4b29830f31"><path d="M 1494.65625 641.339844 L 1441.808594 1003.503906 L 1269.632812 978.378906 L 1322.480469 616.214844 Z M 1494.65625 641.339844 " clip-rule="nonzero"/></clipPath><clipPath id="5028f595bb"><path d="M 1494.65625 641.339844 L 1441.808594 1003.503906 L 1269.632812 978.378906 L 1322.480469 616.214844 Z M 1494.65625 641.339844 " clip-rule="nonzero"/></clipPath><clipPath id="d0aeb568e9"><path d="M 1313 671 L 1324 671 L 1324 681 L 1313 681 Z M 1313 671 " clip-rule="nonzero"/></clipPath><clipPath id="34011a985b"><path d="M 1494.65625 641.339844 L 1441.808594 1003.503906 L 1269.632812 978.378906 L 1322.480469 616.214844 Z M 1494.65625 641.339844 " clip-rule="nonzero"/></clipPath><clipPath id="9599db2660"><path d="M 1494.65625 641.339844 L 1441.808594 1003.503906 L 1269.632812 978.378906 L 1322.480469 616.214844 Z M 1494.65625 641.339844 " clip-rule="nonzero"/></clipPath><clipPath id="21b20b865d"><path d="M 1309 698 L 1320 698 L 1320 708 L 1309 708 Z M 1309 698 " clip-rule="nonzero"/></clipPath><clipPath id="e7a840614e"><path d="M 1494.65625 641.339844 L 1441.808594 1003.503906 L 1269.632812 978.378906 L 1322.480469 616.214844 Z M 1494.65625 641.339844 " clip-rule="nonzero"/></clipPath><clipPath id="a83883ea18"><path d="M 1494.65625 641.339844 L 1441.808594 1003.503906 L 1269.632812 978.378906 L 1322.480469 616.214844 Z M 1494.65625 641.339844 " clip-rule="nonzero"/></clipPath><clipPath id="47ce83f392"><path d="M 1305 725 L 1316 725 L 1316 736 L 1305 736 Z M 1305 725 " clip-rule="nonzero"/></clipPath><clipPath id="094b6f09ff"><path d="M 1494.65625 641.339844 L 1441.808594 1003.503906 L 1269.632812 978.378906 L 1322.480469 616.214844 Z M 1494.65625 641.339844 " clip-rule="nonzero"/></clipPath><clipPath id="f3945b1d61"><path d="M 1494.65625 641.339844 L 1441.808594 1003.503906 L 1269.632812 978.378906 L 1322.480469 616.214844 Z M 1494.65625 641.339844 " clip-rule="nonzero"/></clipPath><clipPath id="ccdc40f564"><path d="M 1301 752 L 1312 752 L 1312 763 L 1301 763 Z M 1301 752 " clip-rule="nonzero"/></clipPath><clipPath id="3e75f3f10b"><path d="M 1494.65625 641.339844 L 1441.808594 1003.503906 L 1269.632812 978.378906 L 1322.480469 616.214844 Z M 1494.65625 641.339844 " clip-rule="nonzero"/></clipPath><clipPath id="b2d91e7d27"><path d="M 1494.65625 641.339844 L 1441.808594 1003.503906 L 1269.632812 978.378906 L 1322.480469 616.214844 Z M 1494.65625 641.339844 " clip-rule="nonzero"/></clipPath><clipPath id="9433905c8d"><path d="M 1297 779 L 1308 779 L 1308 790 L 1297 790 Z M 1297 779 " clip-rule="nonzero"/></clipPath><clipPath id="8f9ad9b5ac"><path d="M 1494.65625 641.339844 L 1441.808594 1003.503906 L 1269.632812 978.378906 L 1322.480469 616.214844 Z M 1494.65625 641.339844 " clip-rule="nonzero"/></clipPath><clipPath id="f74b57c153"><path d="M 1494.65625 641.339844 L 1441.808594 1003.503906 L 1269.632812 978.378906 L 1322.480469 616.214844 Z M 1494.65625 641.339844 " clip-rule="nonzero"/></clipPath><clipPath id="b73e56c71c"><path d="M 1294 806 L 1304 806 L 1304 810 L 1294 810 Z M 1294 806 " clip-rule="nonzero"/></clipPath><clipPath id="20e3d8f3f4"><path d="M 1494.65625 641.339844 L 1441.808594 1003.503906 L 1269.632812 978.378906 L 1322.480469 616.214844 Z M 1494.65625 641.339844 " clip-rule="nonzero"/></clipPath><clipPath id="a715ebf030"><path d="M 1494.65625 641.339844 L 1441.808594 1003.503906 L 1269.632812 978.378906 L 1322.480469 616.214844 Z M 1494.65625 641.339844 " clip-rule="nonzero"/></clipPath></defs><rect x="-144" width="1728" fill="#ffffff" y="-80.999999" height="971.999992" fill-opacity="1"/><rect x="-144" width="1728" fill="#040465" y="-80.999999" height="971.999992" fill-opacity="1"/><g clip-path="url(#7ba1b195ab)"><g clip-path="url(#9fb4314c9f)"><g clip-path="url(#00d03d7bd7)"><path fill="#2670c0" d="M -41.546875 1400.492188 C -21.570312 1406.882812 -0.832031 1412.226562 19.976562 1415.804688 C 56.15625 1425.707031 94.882812 1420.84375 130.636719 1411.28125 C 182.484375 1401.789062 239.359375 1353.375 272.613281 1313.5625 C 278.613281 1306.246094 284.289062 1298.683594 289.996094 1291.140625 C 299.113281 1281.0625 308.351562 1271.109375 318.105469 1261.703125 C 347.019531 1238.453125 379.191406 1219.269531 408.480469 1196.578125 C 429.714844 1182.148438 449.664062 1166.121094 465.816406 1145.320312 C 497.65625 1102.277344 519.304688 1045.023438 507.453125 991.691406 C 507.082031 988.078125 506.589844 984.476562 505.976562 980.910156 C 503.929688 961.917969 499.472656 942.921875 492.484375 924.28125 C 468.039062 833.375 386.691406 784.402344 314.511719 731.238281 C 314.425781 731.167969 314.339844 731.09375 314.257812 731.015625 C 314.070312 730.894531 313.882812 730.765625 313.699219 730.636719 C 309.261719 727.363281 304.859375 724.074219 300.511719 720.757812 C 269.59375 695.457031 246.550781 661.484375 220.695312 631.242188 C 219.257812 629.667969 217.476562 627.621094 215.457031 625.28125 C 200.78125 605.980469 185.238281 587.417969 166.238281 571.761719 C 97.664062 517.414062 -5.3125 481.527344 -85.441406 527.128906 C -137.253906 554.40625 -178.234375 599.273438 -198.773438 654.265625 C -213.230469 693.261719 -230.789062 730.941406 -246.285156 769.492188 C -252.96875 783.351562 -259.839844 797.121094 -267.078125 810.6875 C -268.460938 814.507812 -269.835938 818.34375 -271.195312 822.1875 C -396.148438 1063.125 -307.339844 1306.414062 -41.546875 1400.492188 " fill-opacity="1" fill-rule="nonzero"/></g></g></g><g clip-path="url(#48d449051f)"><g clip-path="url(#4c48cb1587)"><g clip-path="url(#a26968bf69)"><path fill="#2670c0" d="M 1773.730469 -248.316406 C 1753.941406 -255.265625 1733.359375 -261.1875 1712.660156 -265.347656 C 1676.773438 -276.257812 1637.921875 -272.480469 1601.917969 -263.925781 C 1549.824219 -255.890625 1491.613281 -209.085938 1457.257812 -170.21875 C 1451.054688 -163.074219 1445.171875 -155.671875 1439.253906 -148.292969 C 1429.859375 -138.476562 1420.347656 -128.785156 1410.332031 -119.652344 C 1380.777344 -97.226562 1348.082031 -78.945312 1318.167969 -57.085938 C 1296.539062 -43.257812 1276.152344 -27.792969 1259.421875 -7.453125 C 1226.386719 34.683594 1203.144531 91.304688 1213.496094 144.949219 C 1213.769531 148.570312 1214.160156 152.183594 1214.671875 155.769531 C 1216.1875 174.808594 1220.109375 193.921875 1226.574219 212.753906 C 1248.464844 304.308594 1328.40625 355.539062 1399.070312 410.703125 C 1399.15625 410.777344 1399.238281 410.851562 1399.320312 410.933594 C 1399.503906 411.058594 1399.6875 411.195312 1399.867188 411.328125 C 1404.207031 414.722656 1408.519531 418.136719 1412.773438 421.570312 C 1442.96875 447.726562 1465.050781 482.335938 1490.050781 513.289062 C 1491.441406 514.902344 1493.164062 517 1495.121094 519.390625 C 1509.246094 539.097656 1524.265625 558.089844 1542.820312 574.269531 C 1609.84375 630.515625 1711.777344 669.273438 1793.152344 625.929688 C 1845.707031 600.117188 1887.925781 556.414062 1910 502.015625 C 1925.542969 463.441406 1944.148438 426.269531 1960.71875 388.167969 C 1967.789062 374.5 1975.042969 360.929688 1982.660156 347.570312 C 1984.148438 343.789062 1985.625 339.996094 1987.097656 336.191406 C 2118.742188 98.847656 2036.785156 -146.832031 1773.730469 -248.316406 " fill-opacity="1" fill-rule="nonzero"/></g></g></g><g clip-path="url(#15f506d005)"><g clip-path="url(#a8d579baf6)"><g clip-path="url(#4001642851)"><path fill="#e6e6ff" d="M 64.03125 4.226562 C 63.699219 2.925781 62.375 2.136719 61.074219 2.46875 C 59.777344 2.796875 58.988281 4.121094 59.316406 5.421875 C 59.648438 6.722656 60.972656 7.511719 62.273438 7.179688 C 63.570312 6.851562 64.359375 5.527344 64.03125 4.226562 " fill-opacity="1" fill-rule="nonzero"/></g></g></g><g clip-path="url(#57d8fa206e)"><g clip-path="url(#c48acea9ad)"><g clip-path="url(#4592d64186)"><path fill="#e6e6ff" d="M 50.617188 7.628906 C 50.289062 6.328125 48.960938 5.539062 47.664062 5.871094 C 46.363281 6.199219 45.574219 7.523438 45.902344 8.824219 C 46.234375 10.121094 47.558594 10.914062 48.859375 10.582031 C 50.15625 10.253906 50.945312 8.925781 50.617188 7.628906 " fill-opacity="1" fill-rule="nonzero"/></g></g></g><g clip-path="url(#a91eb5d0bd)"><g clip-path="url(#8f4f7f6824)"><g clip-path="url(#489ae7f02e)"><path fill="#e6e6ff" d="M 33.882812 -2.40625 C 33.554688 -3.707031 32.230469 -4.496094 30.929688 -4.167969 C 29.632812 -3.835938 28.84375 -2.511719 29.171875 -1.210938 C 29.5 0.0898438 30.828125 0.875 32.125 0.546875 C 33.425781 0.21875 34.214844 -1.105469 33.882812 -2.40625 " fill-opacity="1" fill-rule="nonzero"/></g></g></g><g clip-path="url(#08d1e20819)"><g clip-path="url(#35daf29ecd)"><g clip-path="url(#873326a5f9)"><path fill="#e6e6ff" d="M 37.289062 11.007812 C 36.957031 9.710938 35.632812 8.921875 34.332031 9.25 C 33.035156 9.578125 32.246094 10.90625 32.574219 12.203125 C 32.90625 13.503906 34.230469 14.292969 35.527344 13.964844 C 36.828125 13.632812 37.617188 12.308594 37.289062 11.007812 " fill-opacity="1" fill-rule="nonzero"/></g></g></g><g clip-path="url(#20e1103941)"><g clip-path="url(#5c6704dbd5)"><g clip-path="url(#0f9fdf64ed)"><path fill="#e6e6ff" d="M 20.46875 0.996094 C 20.140625 -0.304688 18.8125 -1.09375 17.515625 -0.761719 C 16.214844 -0.433594 15.425781 0.890625 15.753906 2.191406 C 16.085938 3.492188 17.410156 4.28125 18.710938 3.949219 C 20.007812 3.621094 20.796875 2.296875 20.46875 0.996094 " fill-opacity="1" fill-rule="nonzero"/></g></g></g><g clip-path="url(#f550ff248a)"><g clip-path="url(#60b74cf2cf)"><g clip-path="url(#c6186b8b2f)"><path fill="#e6e6ff" d="M 23.871094 14.410156 C 23.542969 13.113281 22.214844 12.324219 20.917969 12.652344 C 19.617188 12.984375 18.828125 14.308594 19.160156 15.605469 C 19.488281 16.90625 20.8125 17.695312 22.113281 17.367188 C 23.410156 17.035156 24.203125 15.710938 23.871094 14.410156 " fill-opacity="1" fill-rule="nonzero"/></g></g></g><g clip-path="url(#138a889e2c)"><g clip-path="url(#6d50a71e01)"><g clip-path="url(#ddb9a766cd)"><path fill="#e6e6ff" d="M 7.054688 4.398438 C 6.726562 3.097656 5.402344 2.308594 4.101562 2.640625 C 2.800781 2.96875 2.011719 4.292969 2.34375 5.59375 C 2.671875 6.894531 4 7.679688 5.296875 7.351562 C 6.597656 7.023438 7.386719 5.699219 7.054688 4.398438 " fill-opacity="1" fill-rule="nonzero"/></g></g></g><g clip-path="url(#2cd8d37047)"><g clip-path="url(#d0cb71978a)"><g clip-path="url(#7750b51c14)"><path fill="#e6e6ff" d="M 10.457031 17.8125 C 10.128906 16.515625 8.804688 15.726562 7.503906 16.054688 C 6.207031 16.382812 5.414062 17.710938 5.746094 19.007812 C 6.074219 20.308594 7.402344 21.097656 8.699219 20.769531 C 10 20.4375 10.789062 19.113281 10.457031 17.8125 " fill-opacity="1" fill-rule="nonzero"/></g></g></g><g clip-path="url(#30f3c5c076)"><g clip-path="url(#a93a853848)"><g clip-path="url(#07d71220bf)"><path fill="#e6e6ff" d="M 67.429688 17.636719 C 67.101562 16.335938 65.777344 15.546875 64.476562 15.878906 C 63.179688 16.207031 62.390625 17.53125 62.71875 18.832031 C 63.046875 20.132812 64.375 20.921875 65.671875 20.59375 C 66.972656 20.261719 67.761719 18.9375 67.429688 17.636719 " fill-opacity="1" fill-rule="nonzero"/></g></g></g><g clip-path="url(#7e73361631)"><g clip-path="url(#1b4a73fd73)"><g clip-path="url(#25c400daff)"><path fill="#e6e6ff" d="M 70.835938 31.054688 C 70.503906 29.753906 69.179688 28.964844 67.878906 29.292969 C 66.582031 29.625 65.792969 30.949219 66.121094 32.25 C 66.453125 33.546875 67.777344 34.335938 69.074219 34.007812 C 70.375 33.675781 71.164062 32.351562 70.835938 31.054688 " fill-opacity="1" fill-rule="nonzero"/></g></g></g><g clip-path="url(#a1bb6f6a80)"><g clip-path="url(#8b725c7361)"><g clip-path="url(#4390f2fc66)"><path fill="#e6e6ff" d="M 74.238281 44.46875 C 73.90625 43.171875 72.582031 42.382812 71.285156 42.710938 C 69.984375 43.039062 69.195312 44.367188 69.523438 45.664062 C 69.855469 46.964844 71.179688 47.753906 72.480469 47.421875 C 73.777344 47.09375 74.566406 45.769531 74.238281 44.46875 " fill-opacity="1" fill-rule="nonzero"/></g></g></g><g clip-path="url(#312c6c33a0)"><g clip-path="url(#98fbedc3de)"><g clip-path="url(#777f92851e)"><path fill="#e6e6ff" d="M 77.640625 57.886719 C 77.3125 56.585938 75.984375 55.796875 74.6875 56.125 C 73.386719 56.457031 72.597656 57.78125 72.929688 59.082031 C 73.257812 60.382812 74.582031 61.167969 75.882812 60.839844 C 77.179688 60.511719 77.96875 59.1875 77.640625 57.886719 " fill-opacity="1" fill-rule="nonzero"/></g></g></g><g clip-path="url(#5a8fa26db7)"><g clip-path="url(#4e45699b99)"><g clip-path="url(#3bfa5fee1b)"><path fill="#e6e6ff" d="M 81.042969 71.300781 C 80.714844 70.003906 79.386719 69.214844 78.089844 69.542969 C 76.789062 69.871094 76 71.199219 76.332031 72.496094 C 76.660156 73.796875 77.984375 74.585938 79.285156 74.257812 C 80.585938 73.925781 81.371094 72.601562 81.042969 71.300781 " fill-opacity="1" fill-rule="nonzero"/></g></g></g><g clip-path="url(#579a636abf)"><g clip-path="url(#218e327675)"><g clip-path="url(#dcfa1bd890)"><path fill="#e6e6ff" d="M 84.445312 84.71875 C 84.117188 83.417969 82.792969 82.628906 81.492188 82.960938 C 80.191406 83.289062 79.402344 84.613281 79.734375 85.914062 C 80.0625 87.214844 81.386719 88.003906 82.6875 87.671875 C 83.988281 87.34375 84.777344 86.019531 84.445312 84.71875 " fill-opacity="1" fill-rule="nonzero"/></g></g></g><g clip-path="url(#28a517006a)"><g clip-path="url(#376a0c897f)"><g clip-path="url(#a3233c70a7)"><path fill="#e6e6ff" d="M 83.136719 99.328125 C 83.464844 100.628906 84.789062 101.417969 86.089844 101.089844 C 87.390625 100.757812 88.179688 99.433594 87.847656 98.132812 C 87.519531 96.835938 86.195312 96.046875 84.894531 96.375 C 83.59375 96.707031 82.808594 98.03125 83.136719 99.328125 " fill-opacity="1" fill-rule="nonzero"/></g></g></g><g clip-path="url(#702bbd514c)"><g clip-path="url(#86ebccb2cf)"><g clip-path="url(#013d2807a2)"><path fill="#e6e6ff" d="M 54.019531 21.039062 C 53.6875 19.738281 52.363281 18.949219 51.0625 19.28125 C 49.765625 19.609375 48.976562 20.933594 49.304688 22.234375 C 49.636719 23.535156 50.960938 24.324219 52.257812 23.992188 C 53.558594 23.664062 54.347656 22.339844 54.019531 21.039062 " fill-opacity="1" fill-rule="nonzero"/></g></g></g><g clip-path="url(#6def991067)"><g clip-path="url(#b34a2193b7)"><g clip-path="url(#511f491ab9)"><path fill="#e6e6ff" d="M 57.421875 34.457031 C 57.09375 33.15625 55.765625 32.367188 54.46875 32.695312 C 53.167969 33.027344 52.378906 34.351562 52.707031 35.652344 C 53.039062 36.949219 54.363281 37.738281 55.664062 37.410156 C 56.960938 37.078125 57.75 35.753906 57.421875 34.457031 " fill-opacity="1" fill-rule="nonzero"/></g></g></g><g clip-path="url(#66f017808e)"><g clip-path="url(#6ade095a76)"><g clip-path="url(#3c1cda1b67)"><path fill="#e6e6ff" d="M 60.824219 47.871094 C 60.496094 46.574219 59.167969 45.785156 57.871094 46.113281 C 56.570312 46.441406 55.78125 47.769531 56.109375 49.066406 C 56.441406 50.367188 57.765625 51.15625 59.066406 50.824219 C 60.363281 50.496094 61.152344 49.171875 60.824219 47.871094 " fill-opacity="1" fill-rule="nonzero"/></g></g></g><g clip-path="url(#e8d405c415)"><g clip-path="url(#54f2b89496)"><g clip-path="url(#f06a798597)"><path fill="#e6e6ff" d="M 64.226562 61.289062 C 63.898438 59.988281 62.570312 59.199219 61.273438 59.527344 C 59.972656 59.859375 59.183594 61.183594 59.515625 62.484375 C 59.84375 63.785156 61.167969 64.570312 62.46875 64.242188 C 63.765625 63.914062 64.558594 62.585938 64.226562 61.289062 " fill-opacity="1" fill-rule="nonzero"/></g></g></g><g clip-path="url(#bff3f9b5e6)"><g clip-path="url(#a7766e9732)"><g clip-path="url(#bea9302ca5)"><path fill="#e6e6ff" d="M 67.628906 74.703125 C 67.300781 73.40625 65.976562 72.617188 64.675781 72.945312 C 63.375 73.273438 62.585938 74.601562 62.917969 75.898438 C 63.246094 77.199219 64.570312 77.988281 65.871094 77.660156 C 67.171875 77.328125 67.960938 76.003906 67.628906 74.703125 " fill-opacity="1" fill-rule="nonzero"/></g></g></g><g clip-path="url(#ccb432af20)"><g clip-path="url(#4c836ad15f)"><g clip-path="url(#600c260041)"><path fill="#e6e6ff" d="M 71.03125 88.121094 C 70.703125 86.820312 69.378906 86.03125 68.078125 86.363281 C 66.78125 86.691406 65.988281 88.015625 66.320312 89.316406 C 66.648438 90.613281 67.976562 91.40625 69.273438 91.074219 C 70.574219 90.746094 71.363281 89.417969 71.03125 88.121094 " fill-opacity="1" fill-rule="nonzero"/></g></g></g><g clip-path="url(#a723301a9b)"><g clip-path="url(#f54faea4ce)"><g clip-path="url(#e865a18d00)"><path fill="#e6e6ff" d="M 74.4375 101.535156 C 74.105469 100.238281 72.78125 99.449219 71.480469 99.777344 C 70.183594 100.109375 69.394531 101.433594 69.722656 102.730469 C 70.050781 104.03125 71.378906 104.820312 72.675781 104.492188 C 73.976562 104.160156 74.765625 102.835938 74.4375 101.535156 " fill-opacity="1" fill-rule="nonzero"/></g></g></g><g clip-path="url(#43fa66cc9a)"><g clip-path="url(#b77bf07de8)"><g clip-path="url(#e8526f2667)"><path fill="#e6e6ff" d="M 40.6875 24.421875 C 40.359375 23.121094 39.035156 22.332031 37.734375 22.660156 C 36.433594 22.992188 35.648438 24.316406 35.976562 25.617188 C 36.304688 26.914062 37.632812 27.703125 38.929688 27.375 C 40.230469 27.046875 41.019531 25.71875 40.6875 24.421875 " fill-opacity="1" fill-rule="nonzero"/></g></g></g><g clip-path="url(#c12a76aca3)"><g clip-path="url(#00d3efaf75)"><g clip-path="url(#6f1af57315)"><path fill="#e6e6ff" d="M 44.089844 37.835938 C 43.761719 36.535156 42.4375 35.75 41.136719 36.078125 C 39.839844 36.40625 39.050781 37.730469 39.378906 39.03125 C 39.707031 40.332031 41.035156 41.121094 42.332031 40.789062 C 43.632812 40.460938 44.421875 39.136719 44.089844 37.835938 " fill-opacity="1" fill-rule="nonzero"/></g></g></g><g clip-path="url(#8801f33b17)"><g clip-path="url(#1230e6bd84)"><g clip-path="url(#b90d3f76a0)"><path fill="#e6e6ff" d="M 47.496094 51.253906 C 47.164062 49.953125 45.839844 49.164062 44.539062 49.492188 C 43.242188 49.824219 42.453125 51.148438 42.78125 52.449219 C 43.113281 53.746094 44.4375 54.535156 45.734375 54.207031 C 47.035156 53.878906 47.824219 52.550781 47.496094 51.253906 " fill-opacity="1" fill-rule="nonzero"/></g></g></g><g clip-path="url(#e7f89f2587)"><g clip-path="url(#f70e377bff)"><g clip-path="url(#483399b94c)"><path fill="#e6e6ff" d="M 50.898438 64.667969 C 50.566406 63.371094 49.242188 62.578125 47.945312 62.910156 C 46.644531 63.238281 45.855469 64.566406 46.183594 65.863281 C 46.515625 67.164062 47.839844 67.953125 49.140625 67.625 C 50.4375 67.292969 51.226562 65.96875 50.898438 64.667969 " fill-opacity="1" fill-rule="nonzero"/></g></g></g><g clip-path="url(#7ac343a612)"><g clip-path="url(#162018ccc8)"><g clip-path="url(#59960af94e)"><path fill="#e6e6ff" d="M 54.300781 78.085938 C 53.972656 76.785156 52.644531 75.996094 51.347656 76.324219 C 50.046875 76.65625 49.257812 77.980469 49.585938 79.28125 C 49.917969 80.578125 51.242188 81.367188 52.542969 81.039062 C 53.839844 80.710938 54.628906 79.382812 54.300781 78.085938 " fill-opacity="1" fill-rule="nonzero"/></g></g></g><g clip-path="url(#647511d8a8)"><g clip-path="url(#3efa35f47a)"><g clip-path="url(#21301141c2)"><path fill="#e6e6ff" d="M 57.703125 91.5 C 57.375 90.203125 56.046875 89.414062 54.75 89.742188 C 53.449219 90.070312 52.660156 91.398438 52.992188 92.695312 C 53.320312 93.996094 54.644531 94.785156 55.945312 94.457031 C 57.246094 94.125 58.03125 92.800781 57.703125 91.5 " fill-opacity="1" fill-rule="nonzero"/></g></g></g><g clip-path="url(#07c629c303)"><g clip-path="url(#41b580199e)"><g clip-path="url(#e4d90cc107)"><path fill="#e6e6ff" d="M 61.105469 104.917969 C 60.777344 103.617188 59.453125 102.828125 58.152344 103.160156 C 56.851562 103.488281 56.0625 104.8125 56.394531 106.113281 C 56.722656 107.414062 58.046875 108.199219 59.347656 107.871094 C 60.648438 107.542969 61.4375 106.21875 61.105469 104.917969 " fill-opacity="1" fill-rule="nonzero"/></g></g></g><g clip-path="url(#89e9eabc7c)"><g clip-path="url(#f1ca54db1c)"><g clip-path="url(#cb2b848e40)"><path fill="#e6e6ff" d="M 27.273438 27.824219 C 26.945312 26.523438 25.617188 25.734375 24.320312 26.0625 C 23.019531 26.394531 22.230469 27.71875 22.558594 29.019531 C 22.890625 30.316406 24.214844 31.105469 25.515625 30.777344 C 26.8125 30.449219 27.601562 29.121094 27.273438 27.824219 " fill-opacity="1" fill-rule="nonzero"/></g></g></g><g clip-path="url(#76464ced24)"><g clip-path="url(#662ae6574d)"><g clip-path="url(#62d221e15f)"><path fill="#e6e6ff" d="M 30.675781 41.238281 C 30.347656 39.941406 29.019531 39.152344 27.722656 39.480469 C 26.421875 39.808594 25.632812 41.136719 25.960938 42.433594 C 26.292969 43.734375 27.617188 44.523438 28.917969 44.191406 C 30.214844 43.863281 31.003906 42.539062 30.675781 41.238281 " fill-opacity="1" fill-rule="nonzero"/></g></g></g><g clip-path="url(#13d5c3f682)"><g clip-path="url(#5a74816dc6)"><g clip-path="url(#7c7e1ed244)"><path fill="#e6e6ff" d="M 34.078125 54.65625 C 33.75 53.355469 32.425781 52.566406 31.125 52.898438 C 29.824219 53.226562 29.035156 54.550781 29.367188 55.851562 C 29.695312 57.152344 31.019531 57.9375 32.320312 57.609375 C 33.621094 57.28125 34.410156 55.953125 34.078125 54.65625 " fill-opacity="1" fill-rule="nonzero"/></g></g></g><g clip-path="url(#29cea4f6f6)"><g clip-path="url(#ea6a5ffca5)"><g clip-path="url(#4a91dde0d5)"><path fill="#e6e6ff" d="M 37.480469 68.070312 C 37.152344 66.773438 35.828125 65.984375 34.527344 66.3125 C 33.226562 66.640625 32.4375 67.96875 32.769531 69.265625 C 33.097656 70.566406 34.421875 71.355469 35.722656 71.027344 C 37.023438 70.695312 37.8125 69.371094 37.480469 68.070312 " fill-opacity="1" fill-rule="nonzero"/></g></g></g><g clip-path="url(#e3ea44920c)"><g clip-path="url(#f8a63d1d19)"><g clip-path="url(#19549799dc)"><path fill="#e6e6ff" d="M 40.882812 81.488281 C 40.554688 80.1875 39.230469 79.398438 37.929688 79.730469 C 36.628906 80.058594 35.84375 81.382812 36.171875 82.683594 C 36.5 83.980469 37.824219 84.773438 39.125 84.441406 C 40.425781 84.113281 41.214844 82.785156 40.882812 81.488281 " fill-opacity="1" fill-rule="nonzero"/></g></g></g><g clip-path="url(#963b94c787)"><g clip-path="url(#027852fc42)"><g clip-path="url(#0203dacd6c)"><path fill="#e6e6ff" d="M 44.289062 94.902344 C 43.957031 93.605469 42.632812 92.816406 41.332031 93.144531 C 40.035156 93.476562 39.246094 94.800781 39.574219 96.097656 C 39.902344 97.398438 41.230469 98.1875 42.527344 97.859375 C 43.828125 97.527344 44.617188 96.203125 44.289062 94.902344 " fill-opacity="1" fill-rule="nonzero"/></g></g></g><g clip-path="url(#dedf24d783)"><g clip-path="url(#1d8acb8d81)"><g clip-path="url(#85b76bb4d3)"><path fill="#e6e6ff" d="M 47.691406 108.320312 C 47.359375 107.023438 46.035156 106.230469 44.734375 106.5625 C 43.4375 106.890625 42.648438 108.21875 42.976562 109.515625 C 43.308594 110.816406 44.632812 111.605469 45.929688 111.273438 C 47.230469 110.945312 48.019531 109.621094 47.691406 108.320312 " fill-opacity="1" fill-rule="nonzero"/></g></g></g><g clip-path="url(#7b91fb3e82)"><g clip-path="url(#7e9e3ed0be)"><g clip-path="url(#ed2cce3fe4)"><path fill="#e6e6ff" d="M 13.859375 31.226562 C 13.53125 29.925781 12.207031 29.136719 10.90625 29.464844 C 9.605469 29.796875 8.816406 31.121094 9.148438 32.421875 C 9.476562 33.71875 10.800781 34.507812 12.101562 34.179688 C 13.402344 33.851562 14.191406 32.523438 13.859375 31.226562 " fill-opacity="1" fill-rule="nonzero"/></g></g></g><g clip-path="url(#b906410f36)"><g clip-path="url(#0c5f263cde)"><g clip-path="url(#7ed7976b6d)"><path fill="#e6e6ff" d="M 17.261719 44.640625 C 16.933594 43.339844 15.609375 42.554688 14.308594 42.882812 C 13.011719 43.210938 12.21875 44.535156 12.550781 45.835938 C 12.878906 47.136719 14.207031 47.925781 15.503906 47.59375 C 16.804688 47.265625 17.59375 45.941406 17.261719 44.640625 " fill-opacity="1" fill-rule="nonzero"/></g></g></g><g clip-path="url(#4ec1a74314)"><g clip-path="url(#3b3daf1917)"><g clip-path="url(#4c867aa717)"><path fill="#e6e6ff" d="M 20.667969 58.058594 C 20.335938 56.757812 19.011719 55.96875 17.710938 56.300781 C 16.414062 56.628906 15.625 57.953125 15.953125 59.253906 C 16.28125 60.550781 17.609375 61.339844 18.90625 61.011719 C 20.207031 60.683594 20.996094 59.355469 20.667969 58.058594 " fill-opacity="1" fill-rule="nonzero"/></g></g></g><g clip-path="url(#94fe5dca27)"><g clip-path="url(#1158fcf1c5)"><g clip-path="url(#11ccb616e1)"><path fill="#e6e6ff" d="M 24.070312 71.472656 C 23.738281 70.175781 22.414062 69.386719 21.113281 69.714844 C 19.816406 70.042969 19.027344 71.371094 19.355469 72.667969 C 19.683594 73.96875 21.011719 74.757812 22.308594 74.429688 C 23.609375 74.097656 24.398438 72.773438 24.070312 71.472656 " fill-opacity="1" fill-rule="nonzero"/></g></g></g><g clip-path="url(#9f49008a2d)"><g clip-path="url(#dc58dbd88c)"><g clip-path="url(#ada9835977)"><path fill="#e6e6ff" d="M 27.472656 84.890625 C 27.140625 83.589844 25.816406 82.800781 24.515625 83.132812 C 23.21875 83.460938 22.429688 84.785156 22.757812 86.085938 C 23.089844 87.382812 24.414062 88.171875 25.710938 87.84375 C 27.011719 87.515625 27.800781 86.1875 27.472656 84.890625 " fill-opacity="1" fill-rule="nonzero"/></g></g></g><g clip-path="url(#fffc91c1bc)"><g clip-path="url(#389dbc82ea)"><g clip-path="url(#bc3e55e1e6)"><path fill="#e6e6ff" d="M 30.875 98.304688 C 30.546875 97.007812 29.21875 96.21875 27.921875 96.546875 C 26.621094 96.875 25.832031 98.203125 26.160156 99.5 C 26.492188 100.800781 27.816406 101.589844 29.117188 101.261719 C 30.414062 100.929688 31.203125 99.605469 30.875 98.304688 " fill-opacity="1" fill-rule="nonzero"/></g></g></g><g clip-path="url(#cf4b689eb5)"><g clip-path="url(#9db7cae737)"><g clip-path="url(#40e2aca36d)"><path fill="#e6e6ff" d="M 34.277344 111.722656 C 33.949219 110.421875 32.621094 109.632812 31.324219 109.964844 C 30.023438 110.292969 29.234375 111.617188 29.5625 112.917969 C 29.894531 114.21875 31.21875 115.003906 32.519531 114.675781 C 33.816406 114.347656 34.605469 113.023438 34.277344 111.722656 " fill-opacity="1" fill-rule="nonzero"/></g></g></g><g clip-path="url(#3e6e247002)"><g clip-path="url(#a82d024081)"><g clip-path="url(#d454903288)"><path fill="#e6e6ff" d="M 0.53125 34.605469 C 0.199219 33.304688 -1.125 32.515625 -2.421875 32.847656 C -3.722656 33.175781 -4.511719 34.5 -4.183594 35.800781 C -3.851562 37.101562 -2.527344 37.890625 -1.226562 37.558594 C 0.0703125 37.230469 0.859375 35.90625 0.53125 34.605469 " fill-opacity="1" fill-rule="nonzero"/></g></g></g><g clip-path="url(#dfe87b9720)"><g clip-path="url(#c49741ae7e)"><g clip-path="url(#92ce409436)"><path fill="#e6e6ff" d="M 3.933594 48.023438 C 3.605469 46.722656 2.277344 45.933594 0.980469 46.261719 C -0.320312 46.59375 -1.109375 47.917969 -0.777344 49.21875 C -0.449219 50.515625 0.875 51.304688 2.175781 50.976562 C 3.472656 50.644531 4.261719 49.320312 3.933594 48.023438 " fill-opacity="1" fill-rule="nonzero"/></g></g></g><g clip-path="url(#5f0da81cc7)"><g clip-path="url(#a7cf05a5c2)"><g clip-path="url(#7023ea0725)"><path fill="#e6e6ff" d="M 7.335938 61.4375 C 7.007812 60.140625 5.683594 59.351562 4.382812 59.679688 C 3.082031 60.007812 2.292969 61.335938 2.625 62.632812 C 2.953125 63.933594 4.277344 64.722656 5.578125 64.390625 C 6.878906 64.0625 7.664062 62.738281 7.335938 61.4375 " fill-opacity="1" fill-rule="nonzero"/></g></g></g><g clip-path="url(#4241bc3870)"><g clip-path="url(#c1026bf527)"><g clip-path="url(#bbae98cdf6)"><path fill="#e6e6ff" d="M 10.738281 74.855469 C 10.410156 73.554688 9.085938 72.765625 7.785156 73.09375 C 6.484375 73.425781 5.695312 74.75 6.027344 76.050781 C 6.355469 77.351562 7.679688 78.136719 8.980469 77.808594 C 10.28125 77.480469 11.070312 76.15625 10.738281 74.855469 " fill-opacity="1" fill-rule="nonzero"/></g></g></g><g clip-path="url(#7726b24b82)"><g clip-path="url(#3bfb3f5f65)"><g clip-path="url(#b110b4fcf4)"><path fill="#e6e6ff" d="M 14.140625 88.269531 C 13.8125 86.972656 12.488281 86.183594 11.1875 86.511719 C 9.886719 86.839844 9.101562 88.167969 9.429688 89.464844 C 9.757812 90.765625 11.085938 91.554688 12.382812 91.226562 C 13.683594 90.894531 14.472656 89.570312 14.140625 88.269531 " fill-opacity="1" fill-rule="nonzero"/></g></g></g><g clip-path="url(#7e506e18e3)"><g clip-path="url(#e24e983530)"><g clip-path="url(#03ad12820e)"><path fill="#e6e6ff" d="M 17.542969 101.6875 C 17.214844 100.386719 15.890625 99.597656 14.589844 99.929688 C 13.292969 100.257812 12.503906 101.582031 12.832031 102.882812 C 13.160156 104.179688 14.488281 104.972656 15.785156 104.640625 C 17.085938 104.3125 17.875 102.984375 17.542969 101.6875 " fill-opacity="1" fill-rule="nonzero"/></g></g></g><g clip-path="url(#ee47baba86)"><g clip-path="url(#5bb909897f)"><g clip-path="url(#475422c5dc)"><path fill="#e6e6ff" d="M 20.949219 115.101562 C 20.617188 113.804688 19.292969 113.015625 17.992188 113.34375 C 16.695312 113.675781 15.90625 115 16.234375 116.296875 C 16.566406 117.597656 17.890625 118.386719 19.1875 118.058594 C 20.488281 117.726562 21.277344 116.402344 20.949219 115.101562 " fill-opacity="1" fill-rule="nonzero"/></g></g></g><g clip-path="url(#fbd1b65b2c)"><g clip-path="url(#c8628ca07b)"><g clip-path="url(#02904e87f9)"><path fill="#e6e6ff" d="M 0.644531 91.695312 C 0.3125 90.394531 -1.011719 89.605469 -2.3125 89.9375 C -3.613281 90.265625 -4.398438 91.589844 -4.070312 92.890625 C -3.742188 94.1875 -2.417969 94.980469 -1.117188 94.648438 C 0.183594 94.320312 0.972656 92.992188 0.644531 91.695312 " fill-opacity="1" fill-rule="nonzero"/></g></g></g><g clip-path="url(#0f2ca66367)"><g clip-path="url(#2d3fafa9d7)"><g clip-path="url(#7de7dd5a73)"><path fill="#e6e6ff" d="M 4.046875 105.109375 C 3.714844 103.8125 2.390625 103.023438 1.089844 103.351562 C -0.207031 103.683594 -0.996094 105.007812 -0.667969 106.304688 C -0.339844 107.605469 0.988281 108.394531 2.285156 108.066406 C 3.585938 107.734375 4.375 106.410156 4.046875 105.109375 " fill-opacity="1" fill-rule="nonzero"/></g></g></g><g clip-path="url(#773cd35bbb)"><g clip-path="url(#b2b27db215)"><g clip-path="url(#05596526d0)"><path fill="#e6e6ff" d="M 7.449219 118.527344 C 7.117188 117.226562 5.792969 116.4375 4.492188 116.769531 C 3.195312 117.097656 2.40625 118.425781 2.734375 119.722656 C 3.066406 121.023438 4.390625 121.8125 5.6875 121.480469 C 6.988281 121.152344 7.777344 119.828125 7.449219 118.527344 " fill-opacity="1" fill-rule="nonzero"/></g></g></g><g clip-path="url(#04eeba3ddd)"><g clip-path="url(#4dddf41d59)"><g clip-path="url(#d189dbf6fa)"><path fill="#e6e6ff" d="M 1447.015625 777.921875 C 1447.402344 775.296875 1445.574219 772.84375 1442.945312 772.460938 C 1440.316406 772.078125 1437.867188 773.902344 1437.484375 776.53125 C 1437.097656 779.160156 1438.925781 781.609375 1441.554688 781.992188 C 1444.183594 782.378906 1446.632812 780.550781 1447.015625 777.921875 " fill-opacity="1" fill-rule="nonzero"/></g></g></g><g clip-path="url(#691dd09428)"><g clip-path="url(#6abc33a51c)"><g clip-path="url(#f06e434a08)"><path fill="#e6e6ff" d="M 1443.058594 805.058594 C 1443.441406 802.429688 1441.613281 799.980469 1438.984375 799.597656 C 1436.359375 799.214844 1433.90625 801.039062 1433.523438 803.667969 C 1433.140625 806.296875 1434.964844 808.75 1437.59375 809.132812 C 1440.222656 809.515625 1442.671875 807.6875 1443.058594 805.058594 " fill-opacity="1" fill-rule="nonzero"/></g></g></g><g clip-path="url(#27a91b117f)"><g clip-path="url(#0a1257bd05)"><g clip-path="url(#f4b2b3c63e)"><path fill="#e6e6ff" d="M 1439.855469 638.300781 C 1440.238281 635.671875 1438.410156 633.222656 1435.785156 632.835938 C 1433.15625 632.453125 1430.707031 634.28125 1430.320312 636.910156 C 1429.9375 639.535156 1431.761719 641.988281 1434.390625 642.371094 C 1437.019531 642.753906 1439.46875 640.925781 1439.855469 638.300781 " fill-opacity="1" fill-rule="nonzero"/></g></g></g><g clip-path="url(#ec5363b7b4)"><g clip-path="url(#782916835e)"><g clip-path="url(#54a27e7b56)"><path fill="#e6e6ff" d="M 1435.894531 665.4375 C 1436.277344 662.808594 1434.453125 660.359375 1431.824219 659.972656 C 1429.195312 659.589844 1426.746094 661.417969 1426.363281 664.046875 C 1425.976562 666.675781 1427.804688 669.125 1430.433594 669.507812 C 1433.0625 669.890625 1435.511719 668.066406 1435.894531 665.4375 " fill-opacity="1" fill-rule="nonzero"/></g></g></g><g clip-path="url(#89ca424448)"><g clip-path="url(#0ea0a293ec)"><g clip-path="url(#23cac94bb1)"><path fill="#e6e6ff" d="M 1431.933594 692.574219 C 1432.316406 689.945312 1430.492188 687.496094 1427.863281 687.113281 C 1425.234375 686.730469 1422.785156 688.554688 1422.402344 691.183594 C 1422.019531 693.8125 1423.84375 696.261719 1426.472656 696.644531 C 1429.101562 697.027344 1431.550781 695.203125 1431.933594 692.574219 " fill-opacity="1" fill-rule="nonzero"/></g></g></g><g clip-path="url(#7c01add743)"><g clip-path="url(#467c847d1a)"><g clip-path="url(#9369378d2f)"><path fill="#e6e6ff" d="M 1427.972656 719.710938 C 1428.359375 717.082031 1426.53125 714.632812 1423.902344 714.25 C 1421.273438 713.867188 1418.824219 715.691406 1418.441406 718.320312 C 1418.058594 720.949219 1419.882812 723.398438 1422.511719 723.785156 C 1425.140625 724.167969 1427.589844 722.339844 1427.972656 719.710938 " fill-opacity="1" fill-rule="nonzero"/></g></g></g><g clip-path="url(#8a6ad0a768)"><g clip-path="url(#bbdbac28b2)"><g clip-path="url(#c9e4a247e1)"><path fill="#e6e6ff" d="M 1424.015625 746.851562 C 1424.398438 744.222656 1422.570312 741.773438 1419.941406 741.390625 C 1417.316406 741.003906 1414.863281 742.832031 1414.480469 745.460938 C 1414.097656 748.089844 1415.921875 750.539062 1418.550781 750.921875 C 1421.179688 751.304688 1423.628906 749.480469 1424.015625 746.851562 " fill-opacity="1" fill-rule="nonzero"/></g></g></g><g clip-path="url(#54a5c5eedd)"><g clip-path="url(#58e97e6520)"><g clip-path="url(#05e1c3c3cc)"><path fill="#e6e6ff" d="M 1420.054688 773.988281 C 1420.4375 771.359375 1418.613281 768.910156 1415.984375 768.527344 C 1413.355469 768.140625 1410.90625 769.96875 1410.519531 772.597656 C 1410.136719 775.226562 1411.964844 777.675781 1414.59375 778.058594 C 1417.21875 778.445312 1419.671875 776.617188 1420.054688 773.988281 " fill-opacity="1" fill-rule="nonzero"/></g></g></g><g clip-path="url(#e087b7e6b9)"><g clip-path="url(#081ecc2232)"><g clip-path="url(#9c474d92fc)"><path fill="#e6e6ff" d="M 1416.09375 801.125 C 1416.476562 798.496094 1414.652344 796.046875 1412.023438 795.664062 C 1409.394531 795.28125 1406.945312 797.105469 1406.5625 799.734375 C 1406.179688 802.363281 1408.003906 804.816406 1410.632812 805.199219 C 1413.261719 805.582031 1415.710938 803.753906 1416.09375 801.125 " fill-opacity="1" fill-rule="nonzero"/></g></g></g><g clip-path="url(#991d7db31d)"><g clip-path="url(#1d4507cfd5)"><g clip-path="url(#9ba39b532e)"><path fill="#e6e6ff" d="M 1412.71875 634.339844 C 1413.101562 631.710938 1411.273438 629.261719 1408.644531 628.878906 C 1406.015625 628.492188 1403.566406 630.320312 1403.183594 632.949219 C 1402.800781 635.574219 1404.625 638.027344 1407.253906 638.410156 C 1409.882812 638.792969 1412.335938 636.964844 1412.71875 634.339844 " fill-opacity="1" fill-rule="nonzero"/></g></g></g><g clip-path="url(#423cdaa241)"><g clip-path="url(#8ad74bdd94)"><g clip-path="url(#6ddab3fee9)"><path fill="#e6e6ff" d="M 1408.757812 661.476562 C 1409.140625 658.847656 1407.3125 656.398438 1404.683594 656.015625 C 1402.054688 655.628906 1399.605469 657.457031 1399.222656 660.085938 C 1398.839844 662.714844 1400.664062 665.164062 1403.292969 665.546875 C 1405.921875 665.933594 1408.375 664.105469 1408.757812 661.476562 " fill-opacity="1" fill-rule="nonzero"/></g></g></g><g clip-path="url(#c3a4088bea)"><g clip-path="url(#d905837546)"><g clip-path="url(#3a6d3cf9d4)"><path fill="#e6e6ff" d="M 1404.796875 688.613281 C 1405.179688 685.984375 1403.355469 683.535156 1400.726562 683.152344 C 1398.097656 682.769531 1395.648438 684.59375 1395.261719 687.222656 C 1394.878906 689.851562 1396.707031 692.300781 1399.335938 692.683594 C 1401.960938 693.070312 1404.414062 691.242188 1404.796875 688.613281 " fill-opacity="1" fill-rule="nonzero"/></g></g></g><g clip-path="url(#5db350196a)"><g clip-path="url(#4ad6684ea9)"><g clip-path="url(#8c581731ac)"><path fill="#e6e6ff" d="M 1400.835938 715.753906 C 1401.222656 713.125 1399.394531 710.671875 1396.765625 710.289062 C 1394.136719 709.90625 1391.6875 711.734375 1391.304688 714.363281 C 1390.917969 716.988281 1392.746094 719.441406 1395.375 719.824219 C 1398.003906 720.207031 1400.453125 718.382812 1400.835938 715.753906 " fill-opacity="1" fill-rule="nonzero"/></g></g></g><g clip-path="url(#8a39c7a9a4)"><g clip-path="url(#19d2917b87)"><g clip-path="url(#3192ff442e)"><path fill="#e6e6ff" d="M 1396.878906 742.890625 C 1397.261719 740.261719 1395.433594 737.8125 1392.804688 737.429688 C 1390.175781 737.046875 1387.726562 738.871094 1387.34375 741.5 C 1386.960938 744.128906 1388.785156 746.578125 1391.414062 746.960938 C 1394.042969 747.34375 1396.492188 745.519531 1396.878906 742.890625 " fill-opacity="1" fill-rule="nonzero"/></g></g></g><g clip-path="url(#eb1f5a987b)"><g clip-path="url(#1f23b8f049)"><g clip-path="url(#4d074fd8e7)"><path fill="#e6e6ff" d="M 1392.917969 770.027344 C 1393.300781 767.402344 1391.472656 764.949219 1388.84375 764.566406 C 1386.214844 764.183594 1383.765625 766.007812 1383.382812 768.636719 C 1383 771.265625 1384.824219 773.714844 1387.453125 774.101562 C 1390.082031 774.484375 1392.535156 772.65625 1392.917969 770.027344 " fill-opacity="1" fill-rule="nonzero"/></g></g></g><g clip-path="url(#a5834c6c68)"><g clip-path="url(#9df925c53a)"><g clip-path="url(#11e045bf60)"><path fill="#e6e6ff" d="M 1388.957031 797.164062 C 1389.339844 794.535156 1387.511719 792.085938 1384.886719 791.703125 C 1382.257812 791.320312 1379.808594 793.144531 1379.421875 795.773438 C 1379.039062 798.402344 1380.863281 800.855469 1383.492188 801.238281 C 1386.121094 801.621094 1388.574219 799.792969 1388.957031 797.164062 " fill-opacity="1" fill-rule="nonzero"/></g></g></g><g clip-path="url(#dee3ad7d38)"><g clip-path="url(#dd987c87df)"><g clip-path="url(#7c02593734)"><path fill="#e6e6ff" d="M 1385.585938 630.378906 C 1385.96875 627.75 1384.140625 625.300781 1381.515625 624.917969 C 1378.886719 624.535156 1376.4375 626.359375 1376.050781 628.988281 C 1375.667969 631.617188 1377.496094 634.066406 1380.121094 634.449219 C 1382.75 634.835938 1385.203125 633.007812 1385.585938 630.378906 " fill-opacity="1" fill-rule="nonzero"/></g></g></g><g clip-path="url(#d074ac02be)"><g clip-path="url(#bba95b6b5c)"><g clip-path="url(#1ceb07942d)"><path fill="#e6e6ff" d="M 1381.625 657.519531 C 1382.011719 654.890625 1380.183594 652.4375 1377.554688 652.054688 C 1374.925781 651.671875 1372.476562 653.5 1372.09375 656.128906 C 1371.707031 658.757812 1373.535156 661.207031 1376.164062 661.589844 C 1378.792969 661.972656 1381.242188 660.148438 1381.625 657.519531 " fill-opacity="1" fill-rule="nonzero"/></g></g></g><g clip-path="url(#47579f90ff)"><g clip-path="url(#93fa91ae28)"><g clip-path="url(#faea3584f9)"><path fill="#e6e6ff" d="M 1377.667969 684.65625 C 1378.050781 682.027344 1376.222656 679.578125 1373.59375 679.195312 C 1370.96875 678.808594 1368.515625 680.636719 1368.132812 683.265625 C 1367.75 685.894531 1369.574219 688.34375 1372.203125 688.726562 C 1374.832031 689.109375 1377.28125 687.285156 1377.667969 684.65625 " fill-opacity="1" fill-rule="nonzero"/></g></g></g><g clip-path="url(#26ff6519bd)"><g clip-path="url(#0f589eb4d7)"><g clip-path="url(#d10d7cccab)"><path fill="#e6e6ff" d="M 1373.707031 711.792969 C 1374.089844 709.164062 1372.261719 706.714844 1369.632812 706.328125 C 1367.007812 705.945312 1364.554688 707.773438 1364.171875 710.402344 C 1363.789062 713.03125 1365.617188 715.480469 1368.242188 715.863281 C 1370.871094 716.246094 1373.324219 714.421875 1373.707031 711.792969 " fill-opacity="1" fill-rule="nonzero"/></g></g></g><g clip-path="url(#4822193418)"><g clip-path="url(#5be49e5e03)"><g clip-path="url(#83f6e1bf42)"><path fill="#e6e6ff" d="M 1369.746094 738.933594 C 1370.128906 736.304688 1368.300781 733.855469 1365.671875 733.46875 C 1363.046875 733.085938 1360.59375 734.910156 1360.210938 737.539062 C 1359.828125 740.167969 1361.65625 742.617188 1364.28125 743.003906 C 1366.910156 743.386719 1369.363281 741.5625 1369.746094 738.933594 " fill-opacity="1" fill-rule="nonzero"/></g></g></g><g clip-path="url(#054b693ae2)"><g clip-path="url(#2cd669261d)"><g clip-path="url(#0f9a8bf4a0)"><path fill="#e6e6ff" d="M 1365.785156 766.070312 C 1366.167969 763.441406 1364.34375 760.988281 1361.714844 760.605469 C 1359.085938 760.222656 1356.636719 762.050781 1356.25 764.679688 C 1355.867188 767.308594 1357.695312 769.757812 1360.324219 770.140625 C 1362.953125 770.523438 1365.402344 768.699219 1365.785156 766.070312 " fill-opacity="1" fill-rule="nonzero"/></g></g></g><g clip-path="url(#1a67cc3b75)"><g clip-path="url(#e639a9e1e9)"><g clip-path="url(#2dfcedc3a2)"><path fill="#e6e6ff" d="M 1361.828125 793.207031 C 1362.210938 790.578125 1360.382812 788.128906 1357.753906 787.746094 C 1355.125 787.363281 1352.675781 789.1875 1352.292969 791.816406 C 1351.910156 794.445312 1353.734375 796.894531 1356.363281 797.277344 C 1358.992188 797.664062 1361.441406 795.835938 1361.828125 793.207031 " fill-opacity="1" fill-rule="nonzero"/></g></g></g><g clip-path="url(#06cad7e927)"><g clip-path="url(#e9abd46308)"><g clip-path="url(#e444966123)"><path fill="#e6e6ff" d="M 1358.625 626.445312 C 1359.007812 623.816406 1357.179688 621.367188 1354.550781 620.984375 C 1351.921875 620.601562 1349.472656 622.425781 1349.089844 625.054688 C 1348.707031 627.683594 1350.53125 630.132812 1353.160156 630.515625 C 1355.789062 630.898438 1358.238281 629.074219 1358.625 626.445312 " fill-opacity="1" fill-rule="nonzero"/></g></g></g><g clip-path="url(#5d09614b4e)"><g clip-path="url(#f51779bafd)"><g clip-path="url(#eba1205983)"><path fill="#e6e6ff" d="M 1354.664062 653.585938 C 1355.046875 650.957031 1353.222656 648.503906 1350.59375 648.121094 C 1347.964844 647.738281 1345.515625 649.566406 1345.128906 652.191406 C 1344.746094 654.820312 1346.574219 657.269531 1349.203125 657.65625 C 1351.828125 658.039062 1354.28125 656.214844 1354.664062 653.585938 " fill-opacity="1" fill-rule="nonzero"/></g></g></g><g clip-path="url(#6aa163a86d)"><g clip-path="url(#54c0ab09cb)"><g clip-path="url(#f9f932d9d5)"><path fill="#e6e6ff" d="M 1350.703125 680.722656 C 1351.085938 678.09375 1349.261719 675.644531 1346.632812 675.257812 C 1344.003906 674.875 1341.554688 676.699219 1341.171875 679.328125 C 1340.789062 681.957031 1342.613281 684.40625 1345.242188 684.792969 C 1347.871094 685.175781 1350.320312 683.347656 1350.703125 680.722656 " fill-opacity="1" fill-rule="nonzero"/></g></g></g><g clip-path="url(#910bbd556a)"><g clip-path="url(#238a284033)"><g clip-path="url(#2bead32fab)"><path fill="#e6e6ff" d="M 1346.742188 707.859375 C 1347.125 705.230469 1345.300781 702.777344 1342.671875 702.394531 C 1340.042969 702.011719 1337.59375 703.839844 1337.210938 706.46875 C 1336.828125 709.097656 1338.652344 711.546875 1341.28125 711.929688 C 1343.910156 712.3125 1346.359375 710.488281 1346.742188 707.859375 " fill-opacity="1" fill-rule="nonzero"/></g></g></g><g clip-path="url(#2adeaf86b0)"><g clip-path="url(#0b6f62cf29)"><g clip-path="url(#053907bc13)"><path fill="#e6e6ff" d="M 1342.78125 734.996094 C 1343.167969 732.367188 1341.339844 729.917969 1338.710938 729.535156 C 1336.082031 729.152344 1333.632812 730.976562 1333.25 733.605469 C 1332.867188 736.234375 1334.691406 738.683594 1337.320312 739.066406 C 1339.949219 739.453125 1342.398438 737.625 1342.78125 734.996094 " fill-opacity="1" fill-rule="nonzero"/></g></g></g><g clip-path="url(#fb9f9c69ce)"><g clip-path="url(#e1483503ab)"><g clip-path="url(#d31191cb15)"><path fill="#e6e6ff" d="M 1338.824219 762.136719 C 1339.207031 759.507812 1337.382812 757.054688 1334.753906 756.671875 C 1332.125 756.289062 1329.675781 758.117188 1329.289062 760.746094 C 1328.90625 763.375 1330.734375 765.824219 1333.359375 766.207031 C 1335.988281 766.589844 1338.4375 764.765625 1338.824219 762.136719 " fill-opacity="1" fill-rule="nonzero"/></g></g></g><g clip-path="url(#83c638dad4)"><g clip-path="url(#c3a264ea5d)"><g clip-path="url(#d3a938bee9)"><path fill="#e6e6ff" d="M 1334.863281 789.273438 C 1335.246094 786.644531 1333.421875 784.195312 1330.792969 783.808594 C 1328.164062 783.425781 1325.714844 785.253906 1325.332031 787.882812 C 1324.945312 790.507812 1326.773438 792.960938 1329.402344 793.34375 C 1332.03125 793.726562 1334.480469 791.902344 1334.863281 789.273438 " fill-opacity="1" fill-rule="nonzero"/></g></g></g><g clip-path="url(#24bad6f423)"><g clip-path="url(#65848d7331)"><g clip-path="url(#ee39bad2ea)"><path fill="#e6e6ff" d="M 1331.316406 622.460938 C 1331.699219 619.832031 1329.875 617.382812 1327.246094 617 C 1324.617188 616.617188 1322.167969 618.441406 1321.78125 621.070312 C 1321.398438 623.695312 1323.226562 626.148438 1325.851562 626.53125 C 1328.480469 626.914062 1330.933594 625.089844 1331.316406 622.460938 " fill-opacity="1" fill-rule="nonzero"/></g></g></g><g clip-path="url(#7703560d45)"><g clip-path="url(#4b29830f31)"><g clip-path="url(#5028f595bb)"><path fill="#e6e6ff" d="M 1327.355469 649.601562 C 1327.742188 646.972656 1325.914062 644.519531 1323.285156 644.136719 C 1320.65625 643.753906 1318.207031 645.578125 1317.824219 648.207031 C 1317.4375 650.835938 1319.265625 653.285156 1321.894531 653.671875 C 1324.523438 654.054688 1326.972656 652.226562 1327.355469 649.601562 " fill-opacity="1" fill-rule="nonzero"/></g></g></g><g clip-path="url(#d0aeb568e9)"><g clip-path="url(#34011a985b)"><g clip-path="url(#9599db2660)"><path fill="#e6e6ff" d="M 1323.398438 676.734375 C 1323.78125 674.109375 1321.953125 671.65625 1319.324219 671.273438 C 1316.695312 670.890625 1314.246094 672.714844 1313.863281 675.34375 C 1313.480469 677.972656 1315.304688 680.421875 1317.933594 680.804688 C 1320.5625 681.191406 1323.011719 679.363281 1323.398438 676.734375 " fill-opacity="1" fill-rule="nonzero"/></g></g></g><g clip-path="url(#21b20b865d)"><g clip-path="url(#e7a840614e)"><g clip-path="url(#a83883ea18)"><path fill="#e6e6ff" d="M 1319.4375 703.875 C 1319.820312 701.246094 1317.992188 698.792969 1315.363281 698.410156 C 1312.734375 698.027344 1310.285156 699.855469 1309.902344 702.484375 C 1309.519531 705.113281 1311.34375 707.5625 1313.972656 707.945312 C 1316.601562 708.328125 1319.054688 706.503906 1319.4375 703.875 " fill-opacity="1" fill-rule="nonzero"/></g></g></g><g clip-path="url(#47ce83f392)"><g clip-path="url(#094b6f09ff)"><g clip-path="url(#f3945b1d61)"><path fill="#e6e6ff" d="M 1315.476562 731.011719 C 1315.859375 728.382812 1314.03125 725.933594 1311.40625 725.550781 C 1308.777344 725.167969 1306.328125 726.992188 1305.941406 729.621094 C 1305.558594 732.25 1307.382812 734.699219 1310.011719 735.082031 C 1312.640625 735.464844 1315.09375 733.640625 1315.476562 731.011719 " fill-opacity="1" fill-rule="nonzero"/></g></g></g><g clip-path="url(#ccdc40f564)"><g clip-path="url(#3e75f3f10b)"><g clip-path="url(#b2d91e7d27)"><path fill="#e6e6ff" d="M 1311.515625 758.152344 C 1311.898438 755.523438 1310.074219 753.070312 1307.445312 752.6875 C 1304.816406 752.304688 1302.367188 754.132812 1301.984375 756.757812 C 1301.597656 759.386719 1303.425781 761.835938 1306.054688 762.222656 C 1308.683594 762.605469 1311.132812 760.78125 1311.515625 758.152344 " fill-opacity="1" fill-rule="nonzero"/></g></g></g><g clip-path="url(#9433905c8d)"><g clip-path="url(#8f9ad9b5ac)"><g clip-path="url(#f74b57c153)"><path fill="#e6e6ff" d="M 1307.558594 785.289062 C 1307.941406 782.660156 1306.113281 780.210938 1303.484375 779.824219 C 1300.855469 779.441406 1298.40625 781.269531 1298.023438 783.894531 C 1297.640625 786.523438 1299.464844 788.976562 1302.09375 789.359375 C 1304.722656 789.742188 1307.171875 787.917969 1307.558594 785.289062 " fill-opacity="1" fill-rule="nonzero"/></g></g></g><g clip-path="url(#b73e56c71c)"><g clip-path="url(#20e3d8f3f4)"><g clip-path="url(#a715ebf030)"><path fill="#e6e6ff" d="M 1303.597656 812.414062 C 1303.980469 809.785156 1302.15625 807.335938 1299.527344 806.953125 C 1296.898438 806.570312 1294.449219 808.394531 1294.0625 811.023438 C 1293.679688 813.652344 1295.507812 816.105469 1298.132812 816.488281 C 1300.761719 816.871094 1303.214844 815.042969 1303.597656 812.414062 " fill-opacity="1" fill-rule="nonzero"/></g></g></g></svg>